<svg xmlns="http://www.w3.org/2000/svg" id="Layer_1" x="0" y="0" version="1.1" viewBox="0 0 791 615" xml:space="preserve">
  <style>
    .st5{fill:#01758f}.st40{fill:none;stroke:#5bc1a7;stroke-width:2;stroke-miterlimit:10}
  </style>
  <g id="Group_942" transform="translate(80.614 .969)">
    <g id="Group_72">
      <linearGradient id="Path_97_1_" x1="-1884.303" x2="-1883.303" y1="558.661" y2="558.661" gradientTransform="matrix(1.6 0 0 -1.368 3194.521 889.678)" gradientUnits="userSpaceOnUse">
        <stop offset="0" stop-color="#00637e"/>
        <stop offset="1" stop-color="#53b696"/>
      </linearGradient>
      <path id="Path_97" fill="url(#Path_97_1_)" d="M179.62 124.74c.89.76 1.6 1.37 1.6 1.37s-.71-.61-1.6-1.37z"/>
      <linearGradient id="Path_98_1_" x1="9269.133" x2="9270.134" y1="-3519.769" y2="-3519.769" gradientTransform="matrix(.251 0 0 -.04 -2163.849 45.466)" gradientUnits="userSpaceOnUse">
        <stop offset="0" stop-color="#00637e"/>
        <stop offset="1" stop-color="#53b696"/>
      </linearGradient>
      <path id="Path_98" fill="url(#Path_98_1_)" d="M163.02 186.31c-.06-.01-.15-.02-.25-.04.1.01.19.03.25.04z"/>
      <linearGradient id="Path_99_1_" x1="6416.74" x2="6417.744" y1="476.548" y2="476.548" gradientTransform="matrix(.32 0 0 -.82 -1889.53 471.358)" gradientUnits="userSpaceOnUse">
        <stop offset="0" stop-color="#00637e"/>
        <stop offset="1" stop-color="#53b696"/>
      </linearGradient>
      <path id="Path_99" fill="url(#Path_99_1_)" d="M163.87 80.18c.08.22.19.5.32.82-.12-.32-.23-.6-.32-.82z"/>
      <linearGradient id="Path_100_1_" x1="-1904.84" x2="-1903.84" y1="345.355" y2="345.355" gradientTransform="matrix(1.616 0 0 -.5 3234.205 340.082)" gradientUnits="userSpaceOnUse">
        <stop offset="0" stop-color="#00637e"/>
        <stop offset="1" stop-color="#53b696"/>
      </linearGradient>
      <path id="Path_100" fill="url(#Path_100_1_)" d="M157.6 167.65c-.55-.17-1.1-.33-1.62-.5.53.17 1.08.34 1.62.5z"/>
      <linearGradient id="Path_101_1_" x1="31749.758" x2="31750.754" y1="-22657.045" y2="-22657.045" gradientTransform="matrix(.093 0 0 -.0072 -2789.296 23.132)" gradientUnits="userSpaceOnUse">
        <stop offset="0" stop-color="#00637e"/>
        <stop offset="1" stop-color="#53b696"/>
      </linearGradient>
      <path id="Path_101" fill="url(#Path_101_1_)" d="M163.11 186.31c-.03 0-.06 0-.09-.01.03.01.06.02.09.01z"/>
      <linearGradient id="Path_102_1_" x1="364875.906" x2="364876.906" y1="339.892" y2="339.892" gradientTransform="matrix(.009 0 0 -.492 -3108.687 288.423)" gradientUnits="userSpaceOnUse">
        <stop offset="0" stop-color="#00637e"/>
        <stop offset="1" stop-color="#53b696"/>
      </linearGradient>
      <path id="Path_102" fill="url(#Path_102_1_)" d="M176.18 121.44c0-.12 0-.29-.01-.49.01.2.01.37.01.49z"/>
      <linearGradient id="Path_103_1_" x1="20634.979" x2="20635.975" y1="-5542.089" y2="-5542.089" gradientTransform="matrix(.135 0 0 -.027 -2623.863 36.466)" gradientUnits="userSpaceOnUse">
        <stop offset="0" stop-color="#00637e"/>
        <stop offset="1" stop-color="#53b696"/>
      </linearGradient>
      <path id="Path_103" fill="url(#Path_103_1_)" d="M162.2 186.16l-.14-.03.14.03z"/>
      <linearGradient id="Path_104_1_" x1="-3599.159" x2="-3598.159" y1="660.023" y2="660.023" gradientTransform="matrix(9.212 0 0 -7.815 33314.672 5330.106)" gradientUnits="userSpaceOnUse">
        <stop offset="0" stop-color="#00637e"/>
        <stop offset="1" stop-color="#53b696"/>
      </linearGradient>
      <path id="Path_104" fill="url(#Path_104_1_)" d="M161.9 168.87s-1.19-.32-2.7-.75c1.51.44 2.7.75 2.7.75l6.51 7.06-6.51-7.06z"/>
      <linearGradient id="Path_105_1_" x1="1277.761" x2="1278.761" y1="617.105" y2="617.105" gradientTransform="matrix(.634 0 0 -2.609 -647.413 1792.272)" gradientUnits="userSpaceOnUse">
        <stop offset="0" stop-color="#00637e"/>
        <stop offset="1" stop-color="#53b696"/>
      </linearGradient>
      <path id="Path_105" fill="url(#Path_105_1_)" d="M163.32 183.54l-.63-2.61.63 2.61z"/>
      <linearGradient id="Path_106_1_" x1="40306.648" x2="40307.637" y1="427.242" y2="427.242" gradientTransform="matrix(.075 0 0 -.661 -2854.757 378.02)" gradientUnits="userSpaceOnUse">
        <stop offset="0" stop-color="#00637e"/>
        <stop offset="1" stop-color="#53b696"/>
      </linearGradient>
      <path id="Path_106" fill="url(#Path_106_1_)" d="M168.73 95.28l.08.66-.08-.66z"/>
      <linearGradient id="Path_107_1_" x1="251454.656" x2="251455.688" y1="-731.114" y2="-731.114" gradientTransform="matrix(.013 0 0 -.119 -3100.107 10.073)" gradientUnits="userSpaceOnUse">
        <stop offset="0" stop-color="#00637e"/>
        <stop offset="1" stop-color="#53b696"/>
      </linearGradient>
      <path id="Path_107" fill="url(#Path_107_1_)" d="M168.93 97.01l.01.12-.01-.12z"/>
      <linearGradient id="Path_108_1_" x1="1574.512" x2="1575.514" y1="623.888" y2="623.888" gradientTransform="matrix(.6 0 0 -2.916 -776.702 1912.025)" gradientUnits="userSpaceOnUse">
        <stop offset="0" stop-color="#00637e"/>
        <stop offset="1" stop-color="#53b696"/>
      </linearGradient>
      <path id="Path_108" fill="url(#Path_108_1_)" d="M168.44 92.67s.07.65.17 1.55c-.1-.9-.17-1.55-.17-1.55l-.43-1.37.43 1.37z"/>
      <linearGradient id="Path_109_1_" x1="-3393.848" x2="-3392.848" y1="168.165" y2="168.165" gradientTransform="matrix(5.869 0 0 -.3274 20227.338 381.095)" gradientUnits="userSpaceOnUse">
        <stop offset="0" stop-color="#00637e"/>
        <stop offset="1" stop-color="#53b696"/>
      </linearGradient>
      <path id="Path_109" fill="url(#Path_109_1_)" d="M308.68 326l4.09.14 1.78.06s-5.87-.58-5.87-.2z"/>
      <linearGradient id="Path_110_1_" x1="13156.392" x2="13157.397" y1="-1186.188" y2="-1186.188" gradientTransform="matrix(.194 0 0 -.09 -2507.999 146.74)" gradientUnits="userSpaceOnUse">
        <stop offset="0" stop-color="#00637e"/>
        <stop offset="1" stop-color="#53b696"/>
      </linearGradient>
      <path id="Path_110" fill="url(#Path_110_1_)" d="M44.34 253.45c.06.03.13.06.19.09-.06-.03-.12-.06-.19-.09z"/>
      <linearGradient id="Path_111_1_" x1="3181.323" x2="3182.324" y1="618.482" y2="618.482" gradientTransform="matrix(.465 0 0 -2.666 -1440.162 1770.658)" gradientUnits="userSpaceOnUse">
        <stop offset="0" stop-color="#00637e"/>
        <stop offset="1" stop-color="#53b696"/>
      </linearGradient>
      <path id="Path_111" fill="url(#Path_111_1_)" d="M39.18 122.29c-.02.27-.03.55-.04.84.06-.9.21-1.8.46-2.67-.24.58-.38 1.2-.42 1.83z"/>
      <linearGradient id="Path_112_1_" x1="-2715.984" x2="-2714.984" y1="629.281" y2="629.281" gradientTransform="matrix(2.67 0 0 -3.217 7301.671 2257.585)" gradientUnits="userSpaceOnUse">
        <stop offset="0" stop-color="#00637e"/>
        <stop offset="1" stop-color="#53b696"/>
      </linearGradient>
      <path id="Path_112" fill="url(#Path_112_1_)" d="M49.96 231.57l2.67 3.22-2.67-3.22z"/>
      <linearGradient id="Path_113_1_" x1="-2234.663" x2="-2233.663" y1="653.143" y2="653.143" gradientTransform="matrix(1.925 0 0 -5.921 4423.69 4071.946)" gradientUnits="userSpaceOnUse">
        <stop offset="0" stop-color="#00637e"/>
        <stop offset="1" stop-color="#53b696"/>
      </linearGradient>
      <path id="Path_113" fill="url(#Path_113_1_)" d="M121.99 207.66l1.92-5.92-1.92 5.92z"/>
      <linearGradient id="Path_114_1_" x1="-1389.544" x2="-1388.544" y1="604.391" y2="604.391" gradientTransform="matrix(1.292 0 0 -2.179 1860.298 1547.789)" gradientUnits="userSpaceOnUse">
        <stop offset="0" stop-color="#00637e"/>
        <stop offset="1" stop-color="#53b696"/>
      </linearGradient>
      <path id="Path_114" fill="url(#Path_114_1_)" d="M66.31 231.92l-1.29-2.18 1.29 2.18z"/>
      <linearGradient id="Path_115_1_" x1="217191.797" x2="217192.766" y1="250.553" y2="250.553" gradientTransform="matrix(.015 0 0 -.39 -3084.928 217.462)" gradientUnits="userSpaceOnUse">
        <stop offset="0" stop-color="#00637e"/>
        <stop offset="1" stop-color="#53b696"/>
      </linearGradient>
      <path id="Path_115" fill="url(#Path_115_1_)" d="M176.13 119.55c.01.13.01.26.02.39-.01-.13-.02-.26-.02-.39z"/>
      <linearGradient id="Path_116_1_" x1="-3507.412" x2="-3506.412" y1="668.368" y2="668.368" gradientTransform="matrix(7.343 0 0 -12.77 25914.932 8588.617)" gradientUnits="userSpaceOnUse">
        <stop offset="0" stop-color="#00637e"/>
        <stop offset="1" stop-color="#53b696"/>
      </linearGradient>
      <path id="Path_116" fill="url(#Path_116_1_)" d="M160.05 47.17l6 2.48 1.34 10.29-1.34-10.29-6-2.48z"/>
      <linearGradient id="Path_117_1_" x1="47927.113" x2="47928.113" y1="406.425" y2="406.425" gradientTransform="matrix(.064 0 0 -.611 -2887.933 388.283)" gradientUnits="userSpaceOnUse">
        <stop offset="0" stop-color="#00637e"/>
        <stop offset="1" stop-color="#53b696"/>
      </linearGradient>
      <path id="Path_117" fill="url(#Path_117_1_)" d="M179.24 140.27l-.06-.61.06.61z"/>
      <linearGradient id="Path_118_1_" x1="2858.686" x2="2859.689" y1="490.523" y2="490.523" gradientTransform="matrix(.487 0 0 -.88 -1220.684 535.575)" gradientUnits="userSpaceOnUse">
        <stop offset="0" stop-color="#00637e"/>
        <stop offset="1" stop-color="#53b696"/>
      </linearGradient>
      <path id="Path_118" fill="url(#Path_118_1_)" d="M171.98 104.35l-.49-.88.49.88z"/>
      <linearGradient id="Path_119_1_" x1="217191.797" x2="217192.797" y1="252.733" y2="252.733" gradientTransform="matrix(.015 0 0 -.392 -3084.943 218.423)" gradientUnits="userSpaceOnUse">
        <stop offset="0" stop-color="#00637e"/>
        <stop offset="1" stop-color="#53b696"/>
      </linearGradient>
      <path id="Path_119" fill="url(#Path_119_1_)" d="M176.13 119.55l-.02-.39.02.39z"/>
      <linearGradient id="Path_120_1_" x1="8202.967" x2="8203.967" y1="339.892" y2="339.892" gradientTransform="matrix(.273 0 0 -.492 -2068.496 270.047)" gradientUnits="userSpaceOnUse">
        <stop offset="0" stop-color="#00637e"/>
        <stop offset="1" stop-color="#53b696"/>
      </linearGradient>
      <path id="Path_120" fill="url(#Path_120_1_)" d="M171.27 103.06c-.09-.17-.18-.33-.27-.49.09.17.18.33.27.49z"/>
      <path id="Path_121" fill="none" d="M675.68 392.53c3.78-1.31 10.72-.8 10.42-3.29s-2.57-2.52-3.78-2.73-7.73-1.72-9.16-4.58-1.22-2.32-2.86-3.53-3.4-2.65-3.7-4.75.34-1.72-1.1-2.82-4.32-2.14-4.87-6.26.21-4.21-1.89-5.22-8.53-3.53-8.61-6.13.33-3.12-1.43-3.62c-1.76-.52-5.72-2.99-5.34-6.69s3.11-8.45 1.43-10.13-4.08-1.65-3.19-3.24 2.6-2.52.17-2.9-3.53-.59-3.15-2.19.29-3.6-.97-2.85-3.45 2.15-3.49-.04.88-3.49-.17-4.75-2.4-1.68-2.61-4.12.26-4.32-.34-5.8-2.31-3.32-.47-5.17 4.29-3.03 4.13-5.01.92-5.13-.51-5.8-3.75-2.3-2.44-2.85 3.53-.72 2.23-1.81-2.57-2.57-1.72-3.32c.72-.5 1.06-1.38.88-2.24-.12-.96.3-.67.76-1.72.36-.71.33-1.55-.08-2.22-.46-.98-.43-2.12.08-3.07.67-1.06 1.26-1.72.63-2.44s-3.87-3.62-3.71-5.17-.04-2.85-1.22-3.15-8.33-1.23-8.87-3.28-1.14-5.18-3.41-4.67-3.57 1.27-5.34.12c-1.77-1.12-2.36-2.18-4.33-2.02s-6.98-.75-7.48-3.7c-.02-.09-.03-.19-.05-.29 0-.01 0-.01-.01-.02-.5-2.86-1.16-6-1.16-6l15.94-32.37s24.72-12.07 24.72-12.28.97-26.15.97-26.15l-1.85-11.14-6.28-8.2.05-8.91s-2.74-2.13-2.74-2.28c.05-.12.18-3.61.18-3.61l-5.09-.88-19.93-53.23-2.36-2.6-1.05-7.44-6.01-12.47-1.27-2.99.93-7.1-4.12-9.3-1.52-.91-5.75-6.56s-12.41-1.43-12.41-1.56-1.34-2.4-1.34-2.4l-1.6-.08-2.19-2.73-1.72-.13-1.55 2.61-3.45-1.14 1.22-3.95-3.12-.34-1.72-3.77-3.41 2.3-1.26-3.02-3.49-.72-2.7 4.46S472.21 51.71 370.8 34.43c-.7-.12-1.41-.36-2.11-.46-.8-.1-1.59-.15-2.39-.32-.45-.1-.44-.14-.61.35-.1.26-.21.5-.34.74-.25.52-.72.91-1.27 1.06-.44.14-.91-.04-1.35.07-.4.09-.63.59-.94.86-.76.71-1.79-.3-2.33.95-.11.49-.17.98-.18 1.48a1.99 1.99 0 01-.66 1.37c-.45.35-.9.24-1.36.47s-.77.85-1.01 1.3c-.52.97-1.13 1.9-1.82 2.76-.37.47-.86.88-1.18 1.37-.26.46-.38.98-.36 1.51.05 1.08-.65 2.05-1.69 2.33-.51.26-1.06.46-1.62.59-1.1.14-2.2.15-3.31.25-.75.24-1.41.71-1.87 1.35-.23.3-.29.68-.48 1-.4.46-.86.86-1.39 1.18-.37.32-.7.7-.98 1.11-.36.47-.81.91-1.22 1.36-.64.71-1.22 1.42-1.93 2.06-.3.29-.61.57-.93.87-.34.3-.43.67-.72.99-.15.18-.37.17-.54.3-.14.16-.25.35-.33.55-.19.34-.34.7-.45 1.06-.24.84-.09 1.66-.26 2.49-.1.47-.43.85-.88 1.01-.41.2-1.22.32-1.5-.24-.26-.5.42-.59.64-.83.11-.11.08-.32.2-.42.06-.06.29-.08.31-.11.21-.28-.52-1.21-.64-1.52-.31-.6-.8-1.09-1.41-1.39-1.54-.9-3.54.06-4.82 1.01-.36.27-.57.67-.94.94-.43.3-.9.52-1.41.65-.32.07-.65.04-.95-.08-.36-.16-.73-.3-1.11-.4-.14-.71 1.29-.73 1.72-1.04.67-.51.32-1.27.47-2 .2-.66.48-1.29.84-1.88.32-.54.32-1.22 0-1.76-.18-.38-.45-.7-.79-.94-.28-.16-.72-.14-.95-.36-.57-.52.37-1.34.76-1.65 1.04-.83 2.22-.4 3.39-.19 1.36.25 2.75-.24 3.65-1.29.97-1 1.81-2.44 3.2-2.9 1.14-.36 2.32.18 3.46-.07 1.53-.32 2.49-1.86 3.35-3.03.88-1.42 2.1-2.59 3.55-3.4.96-.45 2.11-.47 3.02-1.05.79-.62 1.44-1.41 1.9-2.3.57-.87 1.21-1.66 1.83-2.48.74-.97 1.38-2.02 2.08-3.01.74-1.04 1.59-1.99 2.53-2.85.77-.63 1.37-1.44 1.74-2.36.4-1.15.58-2.36 1.04-3.5.48-1.18 1.24-2.21 1.7-3.4.2-.5 1.82-1.91.97-2.32-.48-.23-1.28.52-1.63.79-.55.34-1.03.79-1.4 1.32-.08.11-.54.84-.61.71-.38.84-.79 1.66-1.19 2.48-.3.78-.65 1.54-1.04 2.28-.43.68-.96 1.24-1.35 1.94-.94 1.97-2.17 3.79-3.64 5.41-.6.59-1.3 1.11-1.88 1.74-.52.56-1.01 1.15-1.47 1.76-.36.58-.78 1.13-1.25 1.63-.95.83-1.97 1.67-2.99 2.43-1.92 1.43-3.79 2.96-5.75 4.33-.71.49-1.45.92-2.21 1.31-1.36.67-2.76 1.24-4.2 1.7-.72.24-1.43.46-2.15.69-.65.15-1.32.27-1.98.35-1.05.14-2.09.38-3.09.72-.66.24-1.1.76-1.73 1.04-.84.3-1.71.54-2.59.7-1.05.26-2.12.45-3.19.56-.89.09-1.77.31-2.67.35-1.25.03-2.49.14-3.72.34-1.11.2-2.27.2-3.38.44-.9.19-.84.91-1.17 1.63-.1.2-.34.73-.64.62-.32-.11-.26-.95-.27-1.19.06-.47-.03-.96-.26-1.38-.26-.31-.74-.33-1.12-.4-.85-.23-1.75-.29-2.63-.18-.55.1-1.66.18-1.35.96.53.9 1.19 1.71 1.97 2.4.18.2 1.39 1.38.64 1.36-.59-.02-1.34-.87-1.74-1.22-.58-.5-1.08-1.09-1.49-1.75-.71-1.11-2.03-2.69-3.41-2.88-.86-.12-1.66-.46-2.52-.59a5.645 5.645 0 01-3.32-2.26c-.47-.58-1.57-2.11-2.42-1.24-.42.43-.58 1.15-1.32.61-.31-.23-.55-.58-.84-.83-.51-.44-1.08-.8-1.61-1.21a6.295 6.295 0 01-2.04-1.97c-.39-.89-.55-1.86-.46-2.83.07-.45.09-.9.05-1.35-.09-.3-.25-.59-.45-.84a4.37 4.37 0 01-.46-2.3c-.03-.85.44-1.69.32-2.51-.06-.8-.5-1.52-1.18-1.93-.53-1.08-.26-2.43-1.01-3.44a4.81 4.81 0 01-.62-1.41c-.18-.61-.03-1.23-.35-1.82a9.9 9.9 0 01-2.13-.95c-1.29-.88-1.14-2.32-1.31-3.68a5.516 5.516 0 00-2.47-3.94c-1.19-.87-2.25-1.61-2.18-3.24.04-.82.21-1.62.5-2.38.34-.82.96-1.49 1.74-1.9.24.14.65.02.94.12.35.15.7.33 1.02.54.77.39 1.52.91 2.31 1.26 1.52.63 2.97 1.41 4.32 2.35.62.45 1.3.81 2.01 1.08.64.38 1.25.81 1.81 1.3 1.18.85 2.69 1.15 3.95 1.82.78.41 1.49.95 2.1 1.59.27.29.51.61.69.96.3.39.63.76.99 1.09.27.4.49.83.66 1.29.34.97.93 1.84 1.7 2.52 1.22.9 1.92-.1 1.69-1.35-.69-3.69-4.23-5.75-7.24-7.39-4.44-2.41-8.6-5.29-13.16-7.49-2.17-1.05-4.32-2.09-6.39-3.34-1.8-1.19-3.83-2.01-5.95-2.41-4.25-.62-8.46 1.03-12.67 1.32-1.6.06-3.2.25-4.77.58-2.47.6-4.97 1.34-7.37 2.15-.77.26-1.57.33-2.33.64-2.2.87-4.27 2.2-6.55 2.88-1.25.37-2.6.31-3.86.74-.37.12-.76.26-1.14.37-.29.06-.58.1-.87.13-.89.18-1.76.4-2.62.68-.77.22-1.6.17-2.37.39-.46.13-.88.3-1.32.45-.88.14-1.74.38-2.56.73-.77.43-1.62.71-2.49.84-.87.17-1.78.06-2.67.2-.45.05-.9.07-1.35.06-.8.06-1.55.36-2.18.85-.83.34-1.74.48-2.64.4a2.59 2.59 0 00-1.68.31c-.73.51-1.13 1.3-1.94 1.71-1.05.39-2.16.62-3.28.68-.63.06-1.26.19-1.87.39-.48.2-.94.43-1.38.71-.35.26-.68.55-1 .85-.41.31-1.06 1.04-1.55 1.06a41.32 41.32 0 00-3.89 3.07c-.32.27-.55.64-.86.93-.37.3-.75.58-1.15.84-.56.32-1.05.76-1.42 1.29-.26.53-.37 1.12-.62 1.64-.28.58-.69 1.1-1.19 1.5-.74.49-1.5.94-2.29 1.35-.61.41-1.16.87-1.78 1.27-1.01.63-1.85 1.48-2.83 2.12-.31.19-.61.4-.9.63-.36.32-.5.6-.95.79-.39.16-.78.36-1.17.51-.86.23-1.74.39-2.63.48-.85.16-1.71.25-2.57.27-.72.02-1.43.01-2.14.01-.74.02-1.47.1-2.2.24-.17.02-.34.05-.5.07a6.06 6.06 0 00-3.46 1.4c-.6.59-1.23 1.14-1.89 1.66-.4.27-.82.51-1.25.72-.28.13-.57.25-.87.36l-.14.03h-.01c-1.28.6-2.49 1.35-3.6 2.24-.31.18-.61.39-.9.62-.23.36-.42.74-.58 1.13-.67 1.22-1.13 2.58-1.9 3.73-.91 1.38-1.81 2.74-2.71 4.11-.35.59-.75 1.16-1.18 1.69-.3.38-.57.79-.79 1.23-.58 1.14-1.32 2.19-2.2 3.12-.83.78-1.07 2.02-1.79 2.91-.91.98-1.9 1.89-2.94 2.73-.74.76-1.43 1.56-2.06 2.41-1.32 1.59-2.96 2.9-4.8 3.83-1.06.56-2.15 1.06-3.26 1.5-.93.48-1.89.91-2.86 1.28-2.68.73-5.32 1.67-8.06 2.15-.62.11-1.19.38-1.66.79-.76.89-1.64 1.67-2.6 2.33-1.02.54-2.2.31-3.25.69-.78.27-1.56.37-2.33.61-.77.33-1.57.58-2.39.75-1.23.14-2.48.18-3.73.21a7.94 7.94 0 00-3.07.2c-.54.28-1.05.62-1.51 1.01-.47.46-1.07.78-1.71.91-.53-.05-1.07.02-1.58.2-.63.35-1.27.66-1.93.93-.73.14-1.47.21-2.21.21-.9.02-1.79.21-2.62.54-.67.36-1.37.64-2.1.85-.69.17-1.37.39-2.03.67-.44.22-.9.39-1.38.51-.52.13-1.04.29-1.56.44-.36.1-.73.08-1.08.17-.87.24-1.41 1.15-2.3 1.42-.69.12-1.4.21-2.1.24-.73.06-1.45.24-2.12.53-.6.33-1.23.62-1.87.88-.63.33-1.21.75-1.73 1.24-.85.69-1.88 1.11-2.96 1.2a9.34 9.34 0 00-1.83.06 5.3 5.3 0 00-1.82.8c-.57.35-1.25.35-1.81.73-.4.34-.86.61-1.35.8-.49.23-1.02.38-1.55.46-.49-.07-.99-.06-1.47.05-.58.19-1.06.39-1.67.54-.72.17-.46.42-.62.97-.02.05-.04.09-.07.14-.83-2.92-6.94 2.25-8.32 2.91a35.291 35.291 0 00-10.17 5.71c-5.21 4.16-7.06 3.61-8.11 4.66s-7.56-1.05-9.24-1.14-1.18 1.14-1.22 4.24 3.91 6.55 3.91 6.55c2.52 1.68.63-1.34-.76-2.52s-.63-1.26-.67-2.52-.67-1.26-1.39-2.39 1.05-.25 2.02.33.63 1.26.46 2.9 1.47.38 2.35-.34 1.68-.17 2.77.34.38-.59.38-1.51.93-1.22 2.1-.96 1.51-1.26 2.73-1.26-.46 2.57-.33 3.95 6.51.88 8.15 1.3 1.39 1.51.46 5.04c-.93 3.53 1.36 3.33 2.92 1.7.1-.12.19-.24.26-.37-.04.24-.09.47-.14.71-.18.69-.4 1.38-.66 2.04-.3.57-.9.92-1.54.92-.69.01-1.32.37-1.67.96-.35.75-.47 1.59-.35 2.4.07.32.16.64.27.95.05.35.06.7.04 1.05.01.74.01 1.47.07 2.21.03.71.27 1.39.69 1.96.35.44.76.84 1.21 1.16.34.27.62.62.97.87.26.2.54.27.63.62.17.6-.39 1.19-.43 1.77-.07.65.14 1.3.12 1.96 0 .29.14.93-.03 1.18s-.52.14-.78.19c-.56-.16-1.05-.52-1.37-1.01-.71-1.51-.47-3.41-1.57-4.77-.48-.48-1.12-.77-1.8-.8-.64-.11-1.24-.38-1.76-.77a4 4 0 00-1.7-.81c-.67-.04-1.32-.21-1.93-.48a5.915 5.915 0 01-1.47-2.03 5.948 5.948 0 00-2.34-2.3c-.65-.3-1.38-.36-2.02-.67-.63-.33-1.18-.78-1.63-1.33a8.68 8.68 0 00-1.97-1.95c-.68-.41-1.23-.26-1.12.6.16.58.22 1.18.18 1.77-.15.61-.07 1.26.22 1.82.24.57.65 1.33-.07 1.67-.7.22-1.44.26-2.15.13-.02.57.23 1.11.68 1.47.64.66 1.32 1.29 2.04 1.88.68.46 1.31 1 1.88 1.59a8.755 8.755 0 012.1 4.06c.01 1.15.28 2.29.79 3.33.89 1.3 1.65 2.69 2.26 4.14.28.66.48 1.35.59 2.05.05.58-.07 1.16-.06 1.73.01.55-.02 1.1-.09 1.64-.04.86-.03 1.72.03 2.58 0 1.34.13 2.68.41 4 .07.6.18 1.19.31 1.77.21.69.37 1.39.48 2.09.18 1.41.49 2.81.93 4.16.45 1.31.78 2.66.98 4.03.12.58.17 1.17.14 1.77-.08.73-.19 1.44-.29 2.16a11.44 11.44 0 01-1.64 5.14c-.25.35-.54.68-.85.99-.33.28-.69.51-1.09.68-.39.22-.77.47-1.13.75-.18.11-.36.24-.52.39-.66.75-.16 1.95.14 2.73.4 1.05 1.07 1.95 1.49 3 .18.36.33.74.45 1.13 0 .43-.1.85-.28 1.24-.19.56-.46 1.08-.64 1.65-.1.44-.36.84-.73 1.11-.51.45-1.01.9-1.52 1.33-.38.32-.75.67-1.16.97-.33.3-.62.64-.87 1.01-.31.35-.72.62-1.01.99-.33.41-.62.84-.87 1.3a7.4 7.4 0 00-.85 2.86c-.07.45-.13.9-.22 1.35-.07.49.03.98-.08 1.47-.22 1.04-1 1.87-2.03 2.15-.51.16-1.03.28-1.55.38-.62.15-1.17.45-1.78.6-.32.08-.64.01-.95.09-.21.07-.4.17-.59.28-.83.42-1.64.89-2.43 1.39-.57.36-1.46.75-1.24 1.58.19.56.5 1.08.9 1.51.6.66 1.02 1.47 1.23 2.35.24 1.32-.45 1.88-1.03 2.9-.75 1.31-.38 3.01.11 4.32.07.23.18.47.25.71.18.72.63 1.35 1.25 1.75.27.13.57.14.83.27.39.19.68.53 1.04.76.49.29.9.69 1.41.94 1.39.48 2.74 1.05 4.05 1.71.78.44 1.59.82 2.42 1.16.57.31 1.07.75 1.46 1.28 2.1 2.5 3.62 5.54 6.18 7.6.55.41 1.01.92 1.37 1.51.42.71.99 1.32 1.67 1.79.53.29 1.12.42 1.72.38 1.09.22 2.1.72 2.95 1.44 1.11.74 2.06 1.71 2.77 2.84.07.12.14.24.2.36.32.74.69 1.46 1.1 2.14.33.46.84.41 1.25.75.89.73.51 2.92-.11 3.7-.38.45-.69.97-.9 1.52-.18.54-.11 1.14.18 1.63.29.71.67 1.39 1.13 2.01.38.4.7.87.94 1.37.12.47-.28 1.01-.48 1.43-.3.75-.69 1.47-1.15 2.14-.43.53-.76 1.12-1 1.76-.34.77-.86 1.39-1.25 2.12-.2.39-.44.73-.67 1.11-.14.22-.3.42-.44.63-.06.08-.2.24-.29.36.02-.04.04-.08.05-.13-.51 1.16-1.23 2.29-.95 3.6.37 1.17.98 2.26 1.8 3.18.48.67 1.19 1.2 1.12 2.08-.05.63-.03 1.25.05 1.88.15 1.49.89 2.86 2.06 3.8 1.17.88 2.84.82 4.21 1.14.68.17 1.87 1.05 1.87 1.79-.08.64-.37 1.24-.82 1.7-.36.51-.92 1.36-.73 2.03.22.78 1.06 1.29 1.55 1.88.51.59.73 1.37.6 2.14-.12.68-.68 1.16-.82 1.84-.23 1.41.06 2.86.8 4.08.83 1.27 2.25 1.82 3.09 3.07.98 1.46.95 3.07 1.02 4.76.07 1.53-1.01 3.02-2.04 4.06-.74.69-1.09 1.7-.93 2.7.18 1.4.95 2.64 1 4.06a7.24 7.24 0 01-1.2 3.82c-1.32 2.16-4.26 2.86-5.06 5.34-.69 1.7-.37 3.64.82 5.03.69.71 1.55 1.07 2.02 2.03.41 1.12.58 2.32.5 3.51-.12 1.21-.03 2.42.26 3.6.43.94 1.22 1.66 2.2 1.99.99.4 2.09.36 3.08.73 1.29.46 2.24 1.57 2.48 2.92.25 1.07.26 2.18.02 3.26-.34.93-.87 1.77-1.55 2.48a7.385 7.385 0 00-1.08 5.47c.26 1.58 1.82 2.79 3.22 3.34.67.33 1.3.72 1.98 1.01.92.4 1.86.67 2.75 1.11 1.05.53 2.23.73 3.29 1.25 1.35.7 2.37 1.9 2.85 3.35.48 1.12.65 2.35.47 3.55-.1 1.18-.13 2.36-.1 3.55-.05 1.35.15 2.71.6 3.99.19.52.46 1.01.8 1.45 1.09 1.41 2.13 2.86 3.09 4.37.92 1.3 1.71 2.69 2.37 4.14.62 1.42.85 2.97.67 4.51a18.78 18.78 0 01-1.75 4.65c-.67 1.42-1 2.99-.95 4.56.21 1.34.24 2.69.08 4.04-.43 1.41-1.02 2.77-1.75 4.05-.6 1.24-.91 2.6-.9 3.98.1 1.3.11 2.6.03 3.9-.19 1.38-.62 2.72-1.28 3.95-.83 1.59-1.79 3.11-2.61 4.71-.61 1.2-1.69 3-1.49 4.42.14.99 1.32.64 2.02.59 1.38-.01 2.75.23 4.04.71 1.1.34 2.69.84 3.54-.24.83-1.07.49-2.72.41-3.95-.19-1.06.2-2.14 1.01-2.84.76-.68 1.69-1.34 1.61-2.47-.14-2.18-3.18-4.17-.88-6.23 2.41-2.15 5.3 0 7.36 1.49.22-.64.98-1.64 1.71-1.13.34.27.66.56.96.87.33.31.76 1 1.26 1 .32-.03.62-.17.83-.41.25-.36.66-.59 1.11-.61.78.02 1.53.29 2.15.77.48.3.74.9 1.18 1.27.31.23.6.5.84.81.54.56.79 1.35.65 2.11-.13.61-.62 1.09-.67 1.73-.09.74-.05 1.49.11 2.21.28.96 1.03 1.47 1.48 2.31.57 1.07 1.22 2.08 1.96 3.04l2.09-.31 1.6 2.61-2.19 3.87 2.19 1.93 3.71-3.28 3.95 2.78 8.83.33 2.02 3.16h6.89l2.95-2.27 3.7 4.42-.63 3.45 2.4 1.01 3.19-3.25h2.95l2.6 6.56-1.16 1.01 1.93 2.31 3.36-2.36-.29-2.69 2.26-1.51 5.35.71.37 2.65 3.2-.89.96-3.23 6.44.17 6.81 6.22v2.91h-3.73l.71 6.1-6.89 5.47-3.24.25v4.04l3.74 6.44s4.38-1.05 4.38-.93 3.28 6.35 3.28 6.35l4.58-.68 5.25 9 1.13 6.81 9.38 5.77h3.57l4.25-5.39.96-4.25 4.76-.67 3.12-3.63 2.26 1.64.76-3.15 3.32 3.19 2.14-2.09-3.99-3.2 1.81-3.11-4.17-4.37-1.6 1.43-.58-2.02-1.39-1.22.24-3.45-3.95-3.15.84-3.45 1.93.74 4.8 1.87 5.25-.75 6.98 3.4 3.11-.42-.41 3.06 6.85 4.12 4.16-.25-.13 5.22 4.42-3.37.16 2.85 2.65 1.07 4.3-2.62 2.22 1.77 1.47-1.43 2.44 1.56 5.17-3.88-.34-3.78 2.19-.08 3.41 4.03-3.03 2.24.25 1.21 2.74.98-.34 4.74-3.87 2.36-6.1 1.65.21 1.85 3.27 3.52 4.25-.08 3.87 2.81 3.32 7.62 3.33.51 2.22 2.43 4.2-.21 2.19-2.78 4.84-.13.75-3.28h2.19l.67 3.28 4.08 1.6 3.23-2.02 1.17 3.02h4.21l1.13 5.56 3.11-1.52.38-3.62 3.82.09 1.51 2.48 5.46 1.64 2.19-2.4 5.18 5.47-2.91 5.5 6.52 10.4 4.79.38 2.06 4.11 3.53-2.48 1.86 3.45.71 7.82 3.88 3.66-.34 2.65 4.63 1.3 3.74 2.2-.93 2.56 2.36 2.73.33 4.93h4.33s1.3-3.71 1.43-3.71 4.54 2.65 4.54 2.65l3.4-3.83 1.56-9.59 4.24-2.99 3.32.42 8.25-9.21 6 4.26 1.27 6.97 7.86 8.66s10.17-.21 10.17.04.47 2.74.47 2.74l-.92 2.85 2.31 2.99-1.51 2.23 2.23 2.56-4.37 5.8 1.9 2.53 7.31-.25 2.47-3.75h4.84l.88 3.12h1.85l3.08 2.32 1.51-7.19.97-5.85 4.45-5.04 9.17-3.95 5.13.34s1.89-3.11 2.02-3.11 7.95-.26 7.95-.26l2.57-3.95s2.43.88 2.56.88 3.87-2.61 3.87-2.61 10.63 8.79 10.77 8.79 4.5-1.18 4.5-1.18c.52.75 1.08 1.46 1.68 2.15h3.74s2.73-5.96 6.55-8.11l-1.81-3.95 5.63-2.1 5.51 3.74 3.45-8.08 4.58.29s3.45 2.59 4.23 3.08c.04.03.09.06.14.08.13-.05 12.74-4.75 12.87-4.75s3.36.2 3.36.2 2.14 2.78 2.27 2.78 6.09-.34 6.22-.34 2.42 5.21 2.57 5.21c.14-.03 4.16-3.73 4.33-3.73.13.04 3.03 1.39 3.03 1.39l.41 1.93 7.44 3.23 7.82 10.17s6.73 2.47 6.86 2.47 3.83-1.01 3.83-1.01c.54.87 1.13 1.71 1.77 2.53.13 0 9.54-.63 9.54-.63s4.03 3.74 4.46 3.74 11.18-.04 11.18-.04l18.38 6.64 3.07-2.48s1.17-3.45-1.55-4.5-11.01-5.09-10.09-6.44 1.27-2.43.17-3.32-1.64-1.34-1.55-2.14-.08-1.05-.63-1.35a1.718 1.718 0 01-1.05-2.02c.29-1.13-.34-3.36-.51-4.96s-2.78-11.61-2.78-11.61l.51-7.68-4.41-4.21-.18-3.7 1.94-2.53-1.27-3.32 12.15-16.7 7.78-15.98 14.92-25.22 11.79-17.25 4.11-5.59 3.36-4.58 4.8-11.95 7.94-1.56 8.75-4.46 3.91-17.62-1.81-1.09-.16-2.98-8.96-8.03c.03.05-2.58-5.75 1.21-7.05zM163.32 183.54l-.64-2.61.64 2.61zm-1.42-14.67s-1.19-.32-2.7-.75c1.51.44 2.7.75 2.7.75l6.51 7.06-6.51-7.06zm7.04-71.74l-.01-.12.01.12zm-.13-1.19l-.08-.66.08.66zm-.2-1.73c-.1-.89-.17-1.55-.17-1.55l-.43-1.37.43 1.37c0 .01.08.66.17 1.55zm-4.42-13.22c-.13-.32-.24-.6-.32-.82.09.23.2.5.32.82zm-8.2 86.16zm6.08 18.98l.14.03-.14-.03zm.7.14c.1.02.19.03.25.04.03.01.06.01.09.01-.03 0-.06 0-.09-.01-.06-.01-.15-.02-.25-.04zm13.41-65.32c.01.2.01.37.01.49-.01-.12-.01-.29-.01-.49zm5.05 5.16s-.71-.6-1.6-1.37c.88.76 1.6 1.36 1.6 1.37zm-5.08-6.17c0-.13-.01-.26-.02-.39l-.02-.39.02.39c.01.13.01.26.02.39zm3.1 20.33l-.06-.61.06.61zm-8.25-37.7c.09.16.18.33.27.49-.09-.16-.18-.33-.27-.49zm.5.9l.49.88-.49-.88zm-5.44-53.82l1.34 10.29-1.34-10.29-6-2.48 6 2.48zm-44.06 158l1.92-5.92-1.92 5.92zm-72.04 23.92l2.67 3.22-2.67-3.22zM39.18 122.29c.04-.63.18-1.25.43-1.83-.25.87-.41 1.76-.46 2.67 0-.29.01-.57.03-.84zm5.16 131.16c.06.03.13.06.19.09-.06-.03-.12-.06-.19-.09zm20.68-23.71l1.29 2.18-1.29-2.18z"/>
    </g>
    <g id="Group_73">
      <path id="Path_122" d="M360.79 192.28l-14.11 6.3 1.51 8.77 5.55 13.61-7.06 9.83 3.73 6.37-5.24 19.48 3.02 6.74-16.32 5.08-5.72-4.03s-6.43 3.9-9.53 5.45-9.45-7.05-9.45-7.05l-1.98-4.92-10.72-2.74-3.53 3.15-7.81-6.3-4.96 6.55-17.98-7.94-2.06-4.17-11.05-3.39-5.68 3.39-4.96-6.51-7.14 2.48-5.08-.96-2.4-9.16 5.21-2.36-1.72-12.56-7.39-6.55-5.89-3.32 1.85-19.96-.42-14.36-8.77-6.1 6.13-10.24 4.06-4.51.79-7.65 2.93-2.27 3.53 3.66h8.47l4.38-1.2 3.77-5.36-6.55-3.75 1.83-2.96s7.37-1.93 7.37-1.95c-.09 0 .38-5.61.28-5.61 0-.01 5.33-.47 5.33-.47l3.18 3.37 1.73.53 4.57-5.95 10.3 2.14 3.34 4.1 15.31.09s3.5 3.12 3.53 3.21c.12 0 5.32-5.48 5.32-5.48l5.04 2.3.29 6.39 12.51 1.64 4.05-1.77 1.84.2 5.98-1.67 4.76 2.39v10.94l4.92 8.83 8.63-1.2 8.45 6.93s7.19-2.05 7.28-2.05 1.39 1.17 1.39 1.17l1.42 7.41 5.1 3.97-10.43 8.28 5.27 11.72z" class="st40"/>
      <path id="Path_123" d="M539.12 61.19c-.43-2.98-1.01-5.93-1.73-8.85 0 0-7.66-4.79-7.57-6.99a4.867 4.867 0 013.31-4.7c2.18-.78 13.56-5.42 14.18-7.85s1.35-2.2-2.27-8.65c0 0-72.82 27.54-174.23 10.26-.7-.12-1.41-.36-2.11-.46-.8-.1-1.59-.15-2.39-.32-.45-.1-.44-.14-.61.35-.1.26-.21.5-.34.74-.26.52-.72.91-1.27 1.06-.44.14-.91-.04-1.35.07-.4.09-.63.59-.94.86-.76.71-1.79-.3-2.33.95-.11.49-.17.98-.18 1.48a1.99 1.99 0 01-.66 1.37c-.45.35-.9.24-1.36.47s-.77.85-1.01 1.3c-.52.97-1.13 1.9-1.82 2.76-.37.47-.86.88-1.18 1.37-.26.46-.38.98-.36 1.51.06 1.08-.65 2.05-1.69 2.33-.51.26-1.06.46-1.62.59-1.1.14-2.2.15-3.31.25-.75.24-1.41.71-1.87 1.35-.23.3-.29.68-.48 1-.4.46-.86.86-1.39 1.18-.37.32-.7.7-.98 1.11-.36.47-.81.91-1.22 1.36-.64.71-1.23 1.42-1.93 2.06-.3.29-.61.57-.93.87-.34.3-.43.67-.72.99-.15.18-.37.17-.54.3-.14.16-.25.35-.33.55-.19.34-.34.7-.45 1.06-.24.84-.09 1.66-.26 2.49-.1.46-.43.84-.88 1-.41.2-1.23.32-1.5-.24-.26-.5.42-.59.64-.83.11-.11.08-.32.2-.42.06-.06.3-.08.31-.11.21-.28-.51-1.21-.64-1.52-.31-.6-.8-1.09-1.41-1.39-1.54-.9-3.54.06-4.82 1.01-.36.27-.57.67-.94.94-.43.3-.9.52-1.41.65-.32.07-.65.04-.95-.08l-.58 13.48s3.59 9.74 3.68 9.74h4.7l1.86 5.49 3.94 4.75 2.77-4.97 6.71.91 1.42 1.1-6.4 15.13-8.83-.73-2.61 4.7 2.27 5.14-6.43 5.17-3.34 8.08-6.72 2.95 1.84.2 5.98-1.67 4.76 2.39v10.94l4.92 8.83 8.63-1.2 8.45 6.93s7.19-2.05 7.28-2.05 1.39 1.17 1.39 1.17l1.42 7.41 5.1 3.97v6.08s6.71 2.55 6.77 1.04-.82-3.08 0-3.65 2.14-.45 2.71-1.01c.39-.38.82-.7 1.29-.98l7.97 4.95s4.38-3.18 6.08-2.71 10.43 1.39 11.25 1.14 6.37-.41 6.37-.41-1.48-7.21-.31-8.38c.89-.92 1.84-1.78 2.83-2.58.1 0 8.07.44 8.07.44s4.28-3.46 5.7-5.48 1.79-3.06 2.71-3.18 8.28-.03 9.33-.88 2.87-.95 2.62-2.65-.25-4.19 2.17-4.44 7.5 3.06 7.5 3.06 9.9-11.12 10.08-11.12 6.87-.16 6.87-.16 5.17-4.66 9.52-6.23c3.47-1.26 6.02-1.92 7.18-2.56v-.01c.24-.11.45-.28.61-.49.53-.85 2.9-3.13 3.72-2.84s9.86 4.22 9.86 4.22 3.3-.13 3.18-.09.47-3.69 1.93-4.42 11.22-4.26 12.85-6.06 14.18-16 14.18-16l3.66-.63s2.08-3.09 2.17-3.15l13.39-9.01 4.66-15.78c0-.03-13.41-13.71-13.79-17.12z" class="st40"/>
      <path id="Path_124" d="M640.57 172.25s-.97 25.94-.97 26.15-24.72 12.28-24.72 12.28l-15.94 32.37s.66 3.13 1.16 6c-.12-.14-1.1-1.25-1.93-1.18-.88.06-2.11.35-3.02-.41-.17-.14-.37-.32-.6-.52-.99-.88-2.37-2.11-2.8-1.5-.54.76-2.08 3.15-2.53 1.86s-.82-3.15-2.3-3.94-5.57-3.56-9.92-3.72-7.69-.82-9.08-.35-1.92 1.55-3.66.82-4.47-3.22-5.57-2.62-2.62 3-2.77 1.58.85-2.4-.29-3.44-3.28-1.64-2.9-3.15.82-4.95-1.14-6.39-8.29-8.1-8.29-8.1 3.97-6.24 3.34-8.26c-.56-1.95-.93-3.94-1.11-5.95-.06-1.07-.28-5.1-2.24-5.1s-4.03.53-4.38 1.61-.63 1.45-2.05 1.04-3.68-.38-4.41-2.05-1.04-2.47-.95-2.62 3.72-2.62 3.49-4.22.54-2.14-1.16-2.27-4.98-.19-5.73.94a4.584 4.584 0 01-2.9 2.11c-.91.07-3.97 1.58-5.13.13s-4.29-5.51-5.17-7.56-1.04-3.66-2.11-4.04c-1.07-.38-5.23-1.33-5.23-1.33s-.14-4.5 0-4.41c0-.03-7.62-7.72-9.33-8.16-1.73-.44-4.51-1.49-4.66-2.84a6.849 6.849 0 00-1.07-3.22c-.75-1.32-1.38-5.63-2.55-7.03s-6.74-4.75-5.83-7.78 2.26-5.77 1.77-7.37c-.5-1.57-3.07-6.84-3.19-7.1v-.01c.24-.11.45-.28.61-.49.53-.85 2.9-3.13 3.72-2.84s9.86 4.22 9.86 4.22 3.3-.13 3.18-.09.47-3.69 1.93-4.42 11.22-4.25 12.85-6.05 14.18-16.01 14.18-16.01l3.66-.63s2.08-3.09 2.17-3.15l13.39-9.01 4.66-15.78s-13.42-13.68-13.8-17.09c-.43-2.98-1.01-5.93-1.73-8.85 0 0-7.66-4.79-7.57-6.99a4.867 4.867 0 013.31-4.7c2.18-.78 13.56-5.42 14.18-7.85s1.35-2.2-2.27-8.65l2.7-4.46 3.49.72 1.26 3.02 3.41-2.3 1.72 3.77 3.12.34-1.22 3.95 3.45 1.14 1.55-2.61 1.72.13 2.19 2.73 1.6.08s1.34 2.28 1.34 2.4 12.41 1.56 12.41 1.56l5.75 6.56 1.52.91 4.12 9.3-.93 7.1 1.27 2.99 6.01 12.45 1.05 7.44 2.36 2.6 19.93 53.23 5.09.88s-.13 3.5-.18 3.62c0 .15 2.74 2.28 2.74 2.28l-.05 8.91 6.28 8.2 1.84 11.19z" class="st40"/>
      <path id="Path_125" d="M674.5 399.63l8.96 8.03.16 2.98 1.82 1.09-3.91 17.62-8.75 4.46-7.94 1.56-4.81 11.95-3.36 4.58c-9.87-1.46-13.69-4.74-15.49-6.19-1.93-1.55-8.19-4.08-8.19-4.08l-4.83 4.25-8.12-2.02-9.86 14.03-9.21-.71-4.25.38-7.18-5.21-13.83 2.94s-3.45-5-4.28-5.79 2.35-2.9 3.7-4.37c1.99-1.75 4.5-2.79 7.15-2.98 2.18 0 .5-1.93-.25-2.56s-.72-1.93-2.19-3.23.08-6.93-.72-6.97-10.51-4.53-12.98-5.64-7.02 2.61-7.02 2.61l-6.17-4.79 3.49-8.41-7.27-5.16s-7.31 4.53-10.37 6.05c-1.7 1.05-3.91.66-5.16-.89-.83-.98-1.5-2.09-1.98-3.28-1.81-4.15-7.19-21.59-7.19-21.59s-1.13-5.55-.62-7.37-.13-4.79-.44-6.37a9.71 9.71 0 010-5.55 26.26 26.26 0 001.95-7.94c.13-2.96 1.44-4.6-1.77-5.61s-3.91-5.17-2.27-6.11 3.91-.62 3.53-2.9-1.05-2.98-1.17-4.62-1.14-3.95-1.01-5.68.46-3.11-.58-2.68-6.6 2.68-8.53 1.77c-1.93-.92-8.28-5.21-8.07-6.26s1.43-3.36 2.73-2.7 5 3.32 6.85 2.61 4.62-1.77 5.38-2.99 3.15-5.83 4.41-6.67.17-.51-1-1.98-3.83-3.19-2.02-4.04c1.31-.68 2.51-1.54 3.57-2.56l-5.3-5.63.17-14.28 10.79-6.51 20.46-.17 7.98-8.07 7.1 1.81s.79-7.19 2.35-8.19 2.57-1.27 3.78-.72 7.94 4.83 9.58 2.02 1.01-5.3 2.78-6.93 7.14-5.25 7.73-7.56 1.72-9.47 1.72-9.47c.23.2.43.39.6.53.91.76 2.15.47 3.02.41.84-.07 1.82 1.05 1.93 1.18.01 0 .01.01.01.02.02.1.03.19.05.29.51 2.95 5.51 3.87 7.48 3.7s2.56.9 4.33 2.02c1.77 1.15 3.07.39 5.34-.12s2.86 2.61 3.41 4.67 7.69 2.98 8.87 3.28 1.38 1.61 1.22 3.15 3.07 4.46 3.71 5.17.03 1.38-.63 2.44c-.51.95-.54 2.09-.08 3.07.41.68.44 1.52.08 2.22-.46 1.05-.89.76-.76 1.72.19.85-.16 1.74-.88 2.24-.85.75.41 2.23 1.72 3.32s-.92 1.26-2.23 1.81 1.01 2.19 2.44 2.85.34 3.83.51 5.8-2.27 3.16-4.13 5.01-.12 3.7.47 5.17.13 3.37.34 5.8 1.55 2.86 2.61 4.12.12 2.57.17 4.75 2.23.8 3.49.04 1.34 1.26.97 2.85.71 1.81 3.15 2.19.71 1.31-.17 2.9 1.51 1.56 3.19 3.24-1.05 6.44-1.43 10.14 3.58 6.17 5.34 6.69c1.77.5 1.34 1 1.43 3.61s6.51 5.13 8.61 6.13 1.35 1.1 1.89 5.22 3.44 5.17 4.87 6.26.8.73 1.1 2.82 2.06 3.53 3.7 4.75 1.43.67 2.86 3.53 7.94 4.37 9.16 4.58 3.49.26 3.78 2.73-6.65 1.98-10.42 3.29-1.17 7.1-1.17 7.1z" class="st40"/>
      <path id="Path_126" d="M656.67 451.89l-4.11 5.59-11.78 17.24-14.92 25.22-7.78 15.98-12.15 16.7 1.27 3.32-1.94 2.53.18 3.7 4.41 4.21-.51 7.68s2.61 10.01 2.78 11.61.8 3.83.51 4.96c-.21.84.24 1.71 1.05 2.02.55.3.72.55.63 1.35s.47 1.26 1.55 2.14.75 1.97-.17 3.32 7.36 5.39 10.09 6.44 1.55 4.5 1.55 4.5l-3.06 2.48-18.38-6.64s-10.77.04-11.18.04-4.46-3.74-4.46-3.74-9.42.63-9.54.63c-.63-.81-1.22-1.65-1.77-2.53 0 0-3.7 1.01-3.83 1.01s-6.86-2.47-6.86-2.47l-7.82-10.17-7.44-3.23-.41-1.93s-2.9-1.34-3.03-1.39c-.17 0-4.2 3.7-4.33 3.73-.15 0-2.44-5.21-2.57-5.21s-6.09.34-6.22.34-2.27-2.78-2.27-2.78-3.23-.2-3.36-.2-12.74 4.7-12.87 4.75c-.05-.02-.1-.04-.14-.08 0 0-1.59-16.16-3.27-17.18s-2.85-1.3-2.81-2.85 2.64-5.09 1.47-6.64-1.51-.71-2.4-4.32a18.22 18.22 0 00-3.44-6.6l-7.9-1.35-1.93-4.54s5.58-2.15 6.17-5.08c.21-1.42.65-2.79 1.3-4.07l-7.77-3.83s-1.06-6.05-.34-9.15 1.81-7.27.96-8.95-4.28-10.08-3.57-12.22 1.85-3.07 1.64-5.3c-.15-1.64-.42-2.62-1.17-3.26.1-.1 1.76-1.82 2.9-3.04 1.18-1.27 1.14-2.1 3.2-2.65s3.65-3.02 5.41-4.2 2.14-3.32 2.27-4.79 8.95-5.25 10.92-6.64 3.36-6.81 3.95-9.7 4.03-6.01 5.08-7.27c1.55-2.27 2.9-4.68 4.03-7.19.76-1.72 1.15-9.04 1.15-9.04a3.97 3.97 0 005.16.89c3.06-1.51 10.37-6.05 10.37-6.05l7.27 5.16-3.49 8.41 6.17 4.79s4.55-3.7 7.02-2.61 12.18 5.59 12.98 5.64-.75 5.67.72 6.98 1.43 2.6 2.19 3.23 2.43 2.56.25 2.56c-2.64.19-5.15 1.24-7.15 2.98-1.35 1.48-4.54 3.57-3.7 4.37s4.28 5.79 4.28 5.79l13.83-2.94 7.18 5.21 4.25-.38 9.21.71 9.86-14.03 8.12 2.02 4.83-4.25s6.26 2.52 8.19 4.08c1.8 1.44 5.62 4.72 15.49 6.18z" class="st40"/>
      <path id="Path_127" d="M514.51 545.81c-1.67-1-2.85-1.3-2.81-2.85s2.64-5.09 1.47-6.64c-1.17-1.55-1.51-.71-2.4-4.32a18.22 18.22 0 00-3.44-6.6l-7.9-1.35-1.93-4.53s5.58-2.15 6.17-5.08c.21-1.42.65-2.79 1.3-4.07l-7.77-3.83s-1.06-6.05-.34-9.15 1.81-7.27.96-8.95-4.28-10.08-3.57-12.22 1.85-3.07 1.64-5.3c-.15-1.64-.42-2.62-1.17-3.26h-.01c-.31-.25-.66-.44-1.04-.57-1.6-.58-3.7-1.51-3.7-1.51l-21.81 7.68-6.72 12.31-14.79-.51s-8.06-20.77-15.45-29.18l-29.98 3.88-.28.03s-5.89 4.13-6.08 4.35a10.73 10.73 0 01-3.62 2.11c-1.33.26-2.15.15-3.22.82s-5.58 3.31-6.9 2.77a7.846 7.846 0 00-5.16-.86c-1.79.39-3.52 1-5.17 1.8l.53 9.08-6.68.41s-5.42 5.17-5.23 5.23 8.5 4.65 8.5 4.65c-.99 1.5-1.9 3.06-2.71 4.67-.04 1.08-.17 2.15-.38 3.21-.18.13-4.72 1.45-4.72 3.09s1.26 7.12-1.27 6.93-5.73-.07-6.05 1.7-1.58 8.89-1.38 9.02 8.63 3.4 8.76 3.59-.06 6.55-.06 6.55 6.17 1.45 6.43 2.71c.44 1.58.97 3.13 1.57 4.65 0 0 3.78-.68 4.79-.12s5.61 2.71 3.53 4.54a67.993 67.993 0 01-5.55 4.16s2.71 4.48 2.9 4.48 6.06-3.15 6.92-1.64c.89 1.51 1.78.88 2.2 8.33l6 4.26 1.27 6.97 7.86 8.66s10.17-.21 10.17.04.46 2.74.46 2.74l-.92 2.85 2.31 2.99-1.51 2.23 2.23 2.56-4.37 5.8 1.9 2.53 7.31-.24 2.48-3.75h4.84l.88 3.11h1.85l3.08 2.32 1.51-7.19.97-5.85 4.45-5.04 9.17-3.95 5.13.34s1.89-3.11 2.02-3.11 7.95-.26 7.95-.26l2.57-3.95s2.43.88 2.56.88 3.87-2.61 3.87-2.61 10.65 8.8 10.78 8.8 4.5-1.18 4.5-1.18c.52.75 1.08 1.46 1.68 2.15h3.74s2.73-5.96 6.55-8.11l-1.81-3.95 5.63-2.1 5.51 3.74 3.46-8.08 4.58.29s3.45 2.59 4.23 3.08c-.01 0-1.59-16.16-3.27-17.18z" class="st40"/>
      <path id="Path_128" d="M401.23 459.76l-.28.03s-5.89 4.13-6.08 4.35a10.73 10.73 0 01-3.62 2.11c-1.33.25-2.14.15-3.22.82s-5.58 3.31-6.9 2.77a7.846 7.846 0 00-5.16-.86c-1.79.39-3.52 1-5.17 1.8l.53 9.08-6.68.41s-5.42 5.17-5.23 5.23 8.51 4.66 8.51 4.66c-.99 1.5-1.9 3.06-2.71 4.67-.04 1.08-.17 2.15-.38 3.21-.18.13-4.72 1.45-4.72 3.09s1.26 7.12-1.27 6.93-5.73-.07-6.05 1.7-1.58 8.89-1.38 9.02 8.63 3.4 8.76 3.59-.06 6.55-.06 6.55 6.17 1.45 6.43 2.71c.44 1.58.97 3.13 1.57 4.65 0 0 3.78-.68 4.79-.12s5.61 2.71 3.53 4.54a67.993 67.993 0 01-5.55 4.16s2.71 4.48 2.9 4.48 6.06-3.15 6.92-1.64c.89 1.51 1.78.88 2.2 8.33l-8.25 9.21-3.32-.42-4.24 2.99-1.56 9.58-3.4 3.83s-4.42-2.65-4.54-2.65-1.43 3.71-1.43 3.71h-4.33l-.33-4.93-2.37-2.73.93-2.56-3.74-2.2-4.63-1.3.34-2.66-3.88-3.66-.71-7.82-1.86-3.45-3.53 2.48-2.06-4.11-4.79-.38-6.52-10.4 2.9-5.5-5.18-5.47-2.19 2.4-5.46-1.64-1.51-2.48-3.82-.08-.38 3.61-3.11 1.52-1.13-5.56h-4.21l-1.17-3.02-3.23 2.02-4.08-1.6-.68-3.27h-1.17s.42-11.11 1.05-12.33 2.64-1.72 3.7-1.85 5.5-1.47 5.62-1.47 9.58-9.96 9.58-9.96l.2-3.95-3.73-16.77 6-2.81.46-5.67s7.26-2.43 6.76-4.24-1.14-4.53-3.32-6.17a57.627 57.627 0 01-5.72-5.55l4.95-6.85-2.48-7.02 5.76-2.01c.01-2.19.15-4.38.42-6.55.38-1.93.63-2.7-.04-3.32-1.01-1.55-1.85-3.2-2.53-4.92 0-.13 3.19-2.95 3.19-2.95v-6.71h.01c.12 0 12.01-.25 12.01-.25s2.4-4 3.99-3.7 2.35 1.17 4.16 1.47 6.64 1 7.85 1.64c1.63.83 3.43 1.28 5.25 1.3 1.98-.04 6.1-1.17 8.28.38s2.78 2.44 3.78 2.44 1.6-.05 2.31.92 2.94 6.55 5.5 6.6 8.36-1.72 8.65-.42 2.23 4.96 3.49 4.63 6.09-1.35 6.09-1.35 5.11 3.72 3.35 5.42-3.35 2.2-3.02 4.73-.32 3.59 1.95 6.17 5.79 5.17 6.3 6.61 2.46 4.98 3.66 5.93 2.64 3.15 2.64 4.22c.21 1.56.48 3.11.84 4.63z" class="st40"/>
      <path id="Path_129" d="M310.99 418.06c.67 1.72 1.52 3.37 2.53 4.92.67.62.42 1.38.04 3.32a55.12 55.12 0 00-.42 6.55l-5.76 2.01 2.48 7.02-4.95 6.85a56.59 56.59 0 005.72 5.55c2.18 1.64 2.81 4.37 3.32 6.17s-6.76 4.24-6.76 4.24l-.46 5.67-6 2.81 3.73 16.76-.2 3.95s-9.46 9.96-9.58 9.96-4.58 1.34-5.62 1.47-3.08.63-3.7 1.85-1.05 12.33-1.05 12.33h-1.01l-.75 3.28-4.84.13-2.19 2.78-4.2.21-2.22-2.43-3.33-.51-3.32-7.62-3.87-2.81-4.25.08-3.29-3.53-.21-1.85 6.1-1.65 3.87-2.36.34-4.74-2.74-.98-.25-1.21 3.03-2.24-3.41-4.03-2.19.08.34 3.78-5.17 3.88-2.44-1.56-1.47 1.43-2.22-1.77-4.3 2.62-2.65-1.07-.16-2.85-4.42 3.37.13-5.22-4.16.25-6.85-4.12.41-3.07-3.11.42-6.98-3.4-5.25.75-4.8-1.87 2.51-9.35 3.24-1.1s3.28 2.57 5.96 2.23c1.53-.18 3.03-.56 4.45-1.13l-1.39-4.7 4.92-7.74s6.72-.08 7.02-2.1.88-5.29 0-6.51-1.68-2.78-1.22-4.08.47-4.33 1.69-5.29 2.9-1.01 2.39-2.31-1.77-3.82-.55-4.11 3.36-.8 3.24-2.19-1.22-6.5 0-7.77 5.25-5.38 6-4.96 2.09 1.93 2.56.88 1.1-.75 1.23-1.8-.72-2.15.41-3.07 3.82-2.78 2.65-3.66-4.04-1.38-3.19-2.52 2.15-6.72 1.22-7.39-1.43-1.51-1.09-2.4 4.03-2.9 4.03-2.9l2.23 1.72 2.05-1.39h.02l4.62-1.6 3.48 2.48-1.63 2.57.84 2.9 8.78 1.81s7.1-5.88 9.87-6.26 6.34-1.01 6.55-.93a6.151 6.151 0 004.88 1.89c3.49 0 4.74-.84 5.67.17s1.01 3.49 3.4 2.09 1.77-2.09 4.04-1.84 3.07.33 3.07.33-.24 3.07 1.22 3.78 6.38 2.9 6.6 2.95v6.71c-.06.04-3.26 2.86-3.26 2.99z" class="st40"/>
      <path id="Path_130" d="M252.8 398.06l-2.05 1.39-2.23-1.73s-3.7 2.02-4.03 2.9.16 1.72 1.09 2.4-.38 6.26-1.22 7.39 2.02 1.65 3.19 2.52-1.51 2.73-2.65 3.66-.29 2.02-.41 3.07-.76.75-1.23 1.8-1.8-.46-2.56-.88-4.79 3.7-6 4.96-.13 6.38 0 7.77-2.02 1.89-3.24 2.19.05 2.81.55 4.11-1.17 1.35-2.39 2.31-1.23 3.99-1.69 5.29.34 2.86 1.22 4.08.29 4.49 0 6.51-7.02 2.09-7.02 2.09l-4.92 7.74 1.39 4.7c-1.43.57-2.92.96-4.45 1.13-2.69.34-5.96-2.23-5.96-2.23l-3.24 1.1-2.51 9.35-1.93-.74-.84 3.45 3.95 3.15-.24 3.45 1.39 1.22.58 2.02 1.6-1.43 4.17 4.37-1.81 3.11 3.99 3.2-2.14 2.09-3.32-3.19-.76 3.15-2.26-1.64-3.12 3.63-4.76.67-.96 4.25-4.25 5.39h-3.57l-9.38-5.77-1.13-6.81-5.25-9-4.58.68s-3.28-6.22-3.28-6.35-4.38.93-4.38.93l-3.74-6.44v-4.04l3.24-.25 6.89-5.47-.71-6.1h3.73v-2.91l-6.81-6.22-6.44-.17-.96 3.23-3.2.89-.37-2.65-5.35-.71-2.26 1.51.29 2.69-3.36 2.36-1.93-2.31 1.16-1.01-2.6-6.56h-2.95l-3.19 3.24-2.4-1.01.63-3.45-3.7-4.42-2.95 2.27h-6.89l-2.02-3.16-8.83-.33-3.95-2.78-3.71 3.28-2.19-1.93 2.19-3.87-1.6-2.61-2.09.31c-.74-.96-1.39-1.98-1.96-3.04-.45-.84-1.2-1.35-1.48-2.31a6.57 6.57 0 01-.11-2.21c.06-.64.55-1.11.67-1.73.14-.77-.11-1.55-.65-2.11-.24-.31-.52-.58-.84-.81-.44-.36-.7-.96-1.18-1.27a3.73 3.73 0 00-2.15-.77c-.44.03-.85.25-1.1.62-.22.24-.51.39-.83.41-.5 0-.93-.68-1.26-1-.3-.31-.62-.6-.96-.87-.73-.51-1.49.49-1.71 1.13-2.06-1.49-4.96-3.64-7.36-1.49-2.3 2.06.74 4.05.88 6.23.08 1.13-.85 1.79-1.61 2.47-.81.7-1.2 1.78-1.01 2.85.08 1.23.41 2.89-.41 3.95-.85 1.09-2.44.58-3.54.24-1.29-.48-2.66-.72-4.04-.71-.7.05-1.88.4-2.02-.59-.19-1.42.89-3.22 1.49-4.42.82-1.61 1.78-3.13 2.61-4.71a11.67 11.67 0 001.28-3.95c.08-1.3.07-2.6-.03-3.9-.01-1.38.3-2.74.9-3.98.73-1.28 1.32-2.64 1.75-4.05.15-1.34.13-2.7-.08-4.04-.04-1.57.28-3.14.95-4.56.78-1.47 1.37-3.03 1.75-4.65.19-1.54-.04-3.09-.67-4.51-.66-1.45-1.46-2.84-2.37-4.14-.96-1.51-2-2.96-3.09-4.37-.33-.44-.6-.93-.8-1.45l10.52-1.86 7.56-8.51 1.45-.24 8.57 4.92.95-9.64 3.15-1.33 8.32 4.22h1.7l1.45-6.17 8.63-4.42 3.15-13.61 6.99-3.58.95-4.73 11.53 3.28s5.73 6.5 6.62 8.01c.87 1.51 4.91-2.08 4.91-2.08l5.29-9.83v-.01l9.39-2.02 8.76 3.98 1.58 8.56 7.25 1.77 7.5 8.01 4.79-2.97 7.06 1.07 4.28-3.78 4.79.38 1.38-5.67 5.55-3.53 17.64 4.6 1.39 8.38-5.86 3.72 5.24 10.47 9.45.88 2.14 8.07-.44 3.53-2.08 3.28 3.09 1.77 3.05 3.99z" class="st40"/>
      <path id="Path_131" d="M156.87 343.59l-5.29 9.84s-4.04 3.59-4.91 2.08c-.9-1.51-6.62-8.01-6.62-8.01l-11.53-3.28-.96 4.73-6.99 3.58-3.15 13.61-8.63 4.42-1.45 6.17h-1.7l-8.32-4.22-3.15 1.33-.95 9.64-8.57-4.92-1.45.24-7.56 8.51-10.51 1.87c-.45-1.28-.65-2.63-.6-3.98-.03-1.18 0-2.37.1-3.55.17-1.2.01-2.43-.47-3.55a5.89 5.89 0 00-2.85-3.35c-1.06-.52-2.24-.72-3.29-1.25-.9-.45-1.83-.71-2.75-1.11-.67-.3-1.3-.68-1.98-1.01-1.4-.56-2.96-1.77-3.22-3.35-.37-1.9.02-3.86 1.08-5.47.69-.71 1.21-1.55 1.55-2.48a7.47 7.47 0 00-.02-3.26 3.797 3.797 0 00-2.48-2.92c-1-.37-2.09-.33-3.08-.73a3.788 3.788 0 01-2.2-1.99 10.64 10.64 0 01-.26-3.6c.08-1.19-.09-2.39-.5-3.51-.46-.95-1.33-1.32-2.02-2.03a4.923 4.923 0 01-.82-5.03c.8-2.48 3.74-3.18 5.06-5.34a7.212 7.212 0 001.2-3.82c-.04-1.42-.82-2.66-1-4.06-.16-1 .19-2.01.93-2.7 1.02-1.05 2.1-2.54 2.04-4.06-.07-1.69-.04-3.3-1.02-4.76-.84-1.26-2.26-1.81-3.09-3.07a6.015 6.015 0 01-.8-4.08c.14-.68.7-1.16.82-1.84.13-.77-.09-1.55-.6-2.14-.49-.59-1.33-1.11-1.55-1.88-.19-.67.37-1.52.73-2.03.45-.46.74-1.06.82-1.7 0-.74-1.19-1.62-1.86-1.79-1.38-.32-3.05-.26-4.21-1.14a5.592 5.592 0 01-2.06-3.8c-.08-.62-.1-1.25-.05-1.88.07-.88-.64-1.41-1.12-2.08-.82-.92-1.43-2-1.8-3.18-.28-1.32.43-2.44.95-3.6-.01.04-.03.09-.05.13.08-.13.23-.29.29-.36.15-.21.3-.41.44-.63.23-.38.46-.72.67-1.11.39-.73.91-1.35 1.25-2.12.24-.64.57-1.23 1-1.76.46-.67.85-1.38 1.15-2.14.2-.41.6-.95.48-1.43-.24-.5-.55-.97-.94-1.37-.46-.62-.84-1.3-1.13-2.01-.29-.49-.36-1.09-.18-1.63.21-.55.52-1.07.9-1.52.62-.78 1-2.96.11-3.7-.41-.35-.92-.3-1.25-.75-.41-.69-.78-1.41-1.1-2.14l2.7-4.25s3.38.4 4.1 1.51c0 0 3.09 1.98 3.88.88s.92-6.52 1.39-9.52.98-6.43 4.8-8.69L50 231.57s4.64-7.28 4.82-7.12 8.66 6.45 8.76 6.45 1.48-1.17 1.48-1.17l1.29 2.18 14.59-9.33-1.07-3.81s12.76-8.23 12.92-8.07 9.98 2.9 10.08 2.9 12.73-15.95 12.73-15.95l8.35 4.07-1.92 5.92-1.93 4.54 4.04 7.62-4.04 12.98 1.51 8.07s-9.01 3.85-9.07 4.04-1.33 9.65-1.33 9.65l8.01 14.55-3.66 5.42 4.28 4.92-2.18 29.81 2.68 3.21 3.34-2.14 4.54 2.96-3.53 5.11 5.99 5.16 5.04-1.95.89.44.44 8.64 4.72 2.77 2.2-.44.82-1.89 8.51 3.91 3.57 8.57z" class="st40"/>
      <path id="Path_132" d="M362.16 20.27c-.48-.23-1.28.52-1.63.79-.55.34-1.03.79-1.4 1.32-.08.11-.54.84-.61.71-.38.84-.79 1.66-1.19 2.48-.3.78-.65 1.54-1.04 2.28-.43.68-.96 1.24-1.35 1.94-.94 1.97-2.17 3.79-3.64 5.41-.6.59-1.3 1.11-1.88 1.74-.52.56-1.01 1.15-1.47 1.76-.36.58-.78 1.13-1.25 1.63-.95.83-1.97 1.67-2.99 2.43-1.92 1.43-3.79 2.96-5.75 4.33-.71.49-1.45.92-2.21 1.31-1.36.67-2.76 1.24-4.2 1.7-.72.24-1.43.46-2.14.69-.65.15-1.32.27-1.98.35-1.05.14-2.09.38-3.09.72-.66.24-1.1.76-1.73 1.04-.84.3-1.71.54-2.59.7-1.05.26-2.12.45-3.19.57-.89.09-1.77.3-2.67.35-1.25.03-2.49.14-3.72.34-1.11.2-2.27.2-3.38.44-.9.19-.84.91-1.17 1.63-.1.2-.34.73-.64.62-.32-.11-.26-.95-.27-1.19.06-.47-.03-.96-.26-1.38-.26-.31-.74-.33-1.12-.4-.85-.23-1.75-.29-2.63-.18-.55.1-1.66.18-1.35.96.53.9 1.19 1.71 1.98 2.4.18.2 1.39 1.38.64 1.36-.59-.02-1.33-.87-1.74-1.22-.58-.5-1.08-1.09-1.49-1.75-.71-1.11-2.03-2.69-3.41-2.88-.86-.12-1.66-.46-2.52-.59a5.645 5.645 0 01-3.32-2.26c-.47-.58-1.57-2.11-2.42-1.24-.42.43-.58 1.15-1.32.61-.31-.23-.55-.58-.84-.83-.51-.44-1.08-.8-1.61-1.21a6.295 6.295 0 01-2.04-1.97c-.39-.89-.55-1.86-.46-2.83.07-.45.09-.9.05-1.35-.09-.3-.25-.59-.45-.84a4.37 4.37 0 01-.46-2.3c-.03-.85.44-1.69.32-2.51-.06-.8-.5-1.52-1.18-1.93-.53-1.08-.26-2.43-1.01-3.44a4.81 4.81 0 01-.62-1.41c-.18-.61-.03-1.23-.35-1.82a9.9 9.9 0 01-2.13-.95c-1.29-.88-1.14-2.32-1.31-3.68a5.516 5.516 0 00-2.47-3.94c-1.19-.87-2.25-1.61-2.18-3.24.04-.82.21-1.62.5-2.38.34-.82.96-1.49 1.74-1.9.24.14.65.02.94.12.35.15.69.33 1.02.54.77.39 1.52.91 2.31 1.26 1.52.63 2.97 1.41 4.32 2.35.62.45 1.3.81 2.01 1.08.64.38 1.25.81 1.81 1.3 1.18.85 2.69 1.15 3.95 1.82.78.41 1.49.95 2.1 1.59.27.29.51.61.69.96.3.39.63.76.99 1.09.27.4.49.83.66 1.29.34.97.93 1.84 1.7 2.52 1.23.9 1.92-.1 1.69-1.35-.69-3.69-4.23-5.75-7.24-7.39-4.44-2.41-8.6-5.29-13.16-7.49-2.17-1.05-4.32-2.09-6.39-3.34-1.8-1.19-3.83-2.01-5.95-2.41-4.25-.62-8.46 1.03-12.67 1.32-1.6.06-3.2.25-4.77.58-2.47.6-4.97 1.34-7.37 2.15-.77.26-1.57.33-2.33.64-2.2.87-4.27 2.2-6.55 2.88-1.25.37-2.6.31-3.86.74-.37.12-.76.26-1.14.37-.29.06-.58.1-.87.13-.89.18-1.76.4-2.62.68-.77.22-1.6.17-2.38.39-.46.13-.88.3-1.32.45-.88.14-1.74.38-2.56.73-.77.43-1.62.71-2.49.84-.87.17-1.78.06-2.67.2-.45.05-.9.07-1.35.06-.8.06-1.55.36-2.18.85-.83.34-1.74.48-2.64.4a2.59 2.59 0 00-1.68.31c-.73.51-1.13 1.3-1.94 1.71-1.05.39-2.16.62-3.28.68-.63.06-1.26.19-1.87.39-.48.2-.94.43-1.38.71-.35.26-.68.55-1 .85-.41.31-1.06 1.04-1.55 1.06a42.65 42.65 0 00-3.89 3.07c-.32.27-.55.64-.86.93-.37.3-.75.58-1.15.84-.56.32-1.05.76-1.42 1.29-.26.53-.37 1.12-.62 1.64-.28.58-.69 1.1-1.19 1.5-.74.49-1.5.94-2.29 1.35-.61.41-1.16.87-1.78 1.27-1.01.63-1.85 1.48-2.83 2.12-.31.19-.61.4-.9.62-.36.32-.5.6-.95.79-.39.16-.78.36-1.17.51-.86.23-1.74.39-2.63.48-.85.16-1.71.25-2.57.27-.72.02-1.43.01-2.14.01-.74.02-1.47.1-2.2.24-.17.02-.34.05-.5.07l-1.39 5.8 6 2.48 1.34 10.29-2.56 4.12 5.54 5.71.17 1.55-1.09 2.48-.38 1.98s-5.25 3.86-5.38 3.86 2.95 7.27 2.95 7.27l1.8 5.76s.72 6.39.72 6.51 5.46 9.92 5.46 9.92l7.19 3.07.29 4.2-6.05 1.17s.17 3.99.13 4.12c0 .16 5.04 4.45 5.04 4.45l-2.65 7.78.67 6.39 6.11 12.52 4.13 3.28 1.95.19 3.02-2.11 11.56-.76 4.82 3.47 4.06-4.51.79-7.65 2.93-2.27 3.53 3.66h8.47l4.38-1.2 3.77-5.36-6.55-3.75 1.83-2.96s7.37-1.93 7.37-1.95c-.09 0 .38-5.61.28-5.61 0-.01 5.33-.47 5.33-.47l3.18 3.37 1.73.53 4.57-5.95 10.3 2.14 3.34 4.1 15.31.09s3.5 3.12 3.53 3.21c.12 0 5.32-5.48 5.32-5.48l5.04 2.3.29 6.39 12.51 1.64 4.05-1.77 6.72-2.95 3.34-8.08 6.43-5.17-2.27-5.14 2.61-4.7 8.83.73 6.4-15.13-1.42-1.1-6.71-.91-2.77 4.97-3.94-4.75-1.86-5.48h-4.7c-.09 0-3.68-9.74-3.68-9.74l.58-13.48c-.36-.16-.73-.3-1.11-.4-.14-.71 1.29-.73 1.71-1.04.67-.51.32-1.27.46-2 .2-.66.48-1.29.84-1.88.32-.54.32-1.22 0-1.76-.18-.38-.45-.7-.79-.94-.28-.16-.73-.14-.95-.36-.57-.52.37-1.34.76-1.65 1.04-.83 2.22-.4 3.39-.19 1.36.25 2.75-.24 3.65-1.29.97-1 1.81-2.44 3.2-2.9 1.14-.36 2.32.18 3.46-.07 1.53-.32 2.49-1.86 3.35-3.03.88-1.42 2.1-2.59 3.55-3.4.96-.45 2.11-.47 3.02-1.05.79-.62 1.44-1.41 1.9-2.3.57-.87 1.21-1.66 1.83-2.48.74-.97 1.38-2.02 2.08-3.01.74-1.04 1.59-1.99 2.53-2.85.77-.63 1.37-1.44 1.74-2.36.4-1.15.58-2.36 1.04-3.5.48-1.18 1.24-2.21 1.7-3.39.32-.44 1.93-1.86 1.08-2.27z" class="st40"/>
      <path id="Path_133" d="M176.18 121.65c.04-.13-.13-4.12-.13-4.12l6.05-1.17-.29-4.2-7.19-3.07s-5.46-9.79-5.46-9.92-.72-6.51-.72-6.51l-1.8-5.76s-3.07-7.27-2.95-7.27 5.38-3.86 5.38-3.86l.38-1.98 1.09-2.48-.17-1.55-5.54-5.71 2.56-4.12-1.34-10.29-6-2.48 1.39-5.8a6.06 6.06 0 00-3.46 1.4c-.6.59-1.23 1.14-1.89 1.66-.4.27-.82.51-1.25.72-.28.13-.57.25-.87.35l-.14.03h-.01c-1.28.6-2.49 1.35-3.6 2.24-.31.18-.61.39-.9.62-.23.36-.42.74-.58 1.13-.67 1.21-1.13 2.59-1.9 3.73-.91 1.38-1.81 2.74-2.71 4.11-.35.59-.75 1.16-1.18 1.69-.3.38-.57.79-.79 1.23-.58 1.14-1.32 2.19-2.2 3.12-.83.78-1.07 2.02-1.79 2.91-.91.98-1.9 1.89-2.94 2.73-.74.76-1.43 1.56-2.06 2.41-1.32 1.59-2.96 2.9-4.8 3.83-1.06.56-2.15 1.06-3.26 1.5-.93.48-1.89.91-2.86 1.28-2.68.73-5.32 1.67-8.06 2.15-.62.11-1.19.38-1.66.79-.76.89-1.64 1.67-2.6 2.33-1.02.54-2.2.31-3.25.69-.78.27-1.56.37-2.33.61-.77.33-1.57.58-2.39.75-1.23.14-2.48.18-3.73.21a7.94 7.94 0 00-3.07.2c-.54.28-1.05.62-1.51 1.01-.47.46-1.07.78-1.71.91-.53-.05-1.07.02-1.58.2-.63.34-1.27.66-1.93.93-.73.14-1.47.21-2.21.21-.9.02-1.79.21-2.62.54-.67.36-1.37.64-2.1.85-.69.17-1.37.39-2.03.67-.44.22-.9.39-1.38.51-.52.13-1.04.29-1.56.44-.36.1-.73.08-1.08.17-.87.24-1.41 1.15-2.3 1.42-.69.12-1.4.21-2.1.24-.73.06-1.45.24-2.12.53-.6.33-1.23.62-1.87.88-.63.33-1.21.75-1.73 1.24-.85.69-1.88 1.11-2.96 1.2a9.34 9.34 0 00-1.83.06c-.65.15-1.27.42-1.82.79-.57.35-1.25.35-1.81.73-.4.34-.86.61-1.35.8-.49.23-1.02.38-1.55.46-.49-.07-.99-.06-1.47.05-.58.19-1.06.39-1.67.54-.72.17-.46.42-.62.97-.02.05-.04.09-.07.14-.83-2.92-6.94 2.25-8.32 2.91a35.291 35.291 0 00-10.17 5.71c-5.21 4.16-7.06 3.61-8.11 4.67s-7.56-1.05-9.24-1.14-1.18 1.14-1.22 4.24 3.91 6.55 3.91 6.55c2.52 1.68.63-1.34-.76-2.52s-.63-1.26-.67-2.52-.67-1.26-1.39-2.39 1.05-.25 2.02.33.63 1.26.46 2.9 1.47.38 2.35-.34 1.68-.17 2.77.34.38-.59.38-1.51.93-1.22 2.1-.96 1.51-1.26 2.73-1.26-.46 2.57-.33 3.95 6.51.88 8.15 1.3 1.39 1.51.46 5.04c-.93 3.53 1.36 3.33 2.92 1.7.1-.12.19-.24.26-.37-.04.24-.09.47-.14.71-.18.69-.4 1.38-.66 2.04-.3.57-.89.92-1.54.92-.69.01-1.32.37-1.67.96-.35.75-.47 1.59-.35 2.4.07.32.16.64.27.96.05.35.06.7.04 1.05.01.74.01 1.47.07 2.21.03.71.27 1.39.69 1.96.35.44.76.84 1.21 1.16.34.27.62.62.97.87.26.2.54.27.63.62.17.6-.39 1.19-.43 1.77-.07.65.14 1.3.12 1.96 0 .3.14.93-.03 1.18s-.52.14-.78.19c-.56-.16-1.05-.52-1.37-1.01-.71-1.51-.47-3.41-1.57-4.77-.48-.48-1.12-.77-1.8-.8-.64-.11-1.24-.38-1.76-.77a4 4 0 00-1.7-.81c-.67-.04-1.32-.21-1.93-.48a5.915 5.915 0 01-1.47-2.03 5.948 5.948 0 00-2.34-2.3c-.65-.3-1.38-.36-2.02-.67-.63-.33-1.18-.78-1.63-1.33a8.68 8.68 0 00-1.97-1.95c-.68-.41-1.23-.26-1.12.6.16.58.22 1.18.18 1.77-.15.61-.07 1.26.22 1.82.24.57.65 1.33-.07 1.67-.7.22-1.44.26-2.15.13-.02.57.23 1.11.68 1.47.64.66 1.32 1.29 2.04 1.88.68.46 1.31 1 1.88 1.59a8.755 8.755 0 012.1 4.06c.01 1.15.28 2.29.79 3.33.89 1.3 1.65 2.69 2.26 4.14.28.66.48 1.35.59 2.05.05.58-.07 1.16-.06 1.73.01.55-.02 1.1-.09 1.64-.04.86-.03 1.72.03 2.58 0 1.34.13 2.68.41 4 .07.6.18 1.19.31 1.77.21.69.37 1.39.48 2.09.18 1.41.49 2.81.93 4.16.45 1.31.78 2.66.98 4.03.12.58.17 1.17.14 1.77-.08.73-.19 1.44-.29 2.16-.14 1.82-.7 3.57-1.65 5.13-.25.35-.54.69-.85.99-.33.28-.69.51-1.09.68-.39.22-.77.47-1.13.75-.18.11-.36.24-.52.39-.66.75-.16 1.95.14 2.73.4 1.05 1.07 1.95 1.49 3 .18.36.33.74.45 1.13 0 .43-.1.85-.28 1.24-.19.56-.46 1.08-.64 1.65-.1.44-.36.83-.73 1.11-.51.45-1.01.9-1.52 1.34-.38.32-.75.67-1.16.97-.33.3-.62.64-.87 1.01-.31.35-.72.62-1.01.99-.33.41-.62.84-.87 1.3a7.4 7.4 0 00-.85 2.86c-.07.45-.13.9-.22 1.35-.07.49.03.98-.08 1.47-.22 1.04-1 1.87-2.03 2.15-.51.16-1.03.28-1.55.38-.62.15-1.17.45-1.78.6-.32.08-.64.01-.95.09-.21.07-.4.17-.59.28-.83.42-1.64.89-2.43 1.39-.57.36-1.46.75-1.24 1.58.19.56.5 1.08.9 1.51.6.66 1.02 1.47 1.23 2.35.24 1.32-.45 1.88-1.03 2.9-.75 1.31-.38 3.01.11 4.32.07.23.18.47.25.71.18.72.63 1.35 1.25 1.75.27.13.57.14.83.27.39.19.68.53 1.04.76.49.29.9.69 1.41.94 1.39.48 2.74 1.05 4.05 1.71.78.44 1.59.82 2.42 1.16.57.31 1.07.75 1.46 1.27 2.1 2.5 3.62 5.54 6.18 7.6.55.41 1.01.92 1.37 1.51.42.71.99 1.32 1.67 1.79.53.29 1.12.42 1.72.38 1.09.22 2.1.72 2.95 1.44 1.11.74 2.06 1.71 2.77 2.84.07.12.14.24.2.36l2.7-4.25s3.38.4 4.1 1.51c0 0 3.09 1.98 3.88.88s.92-6.52 1.39-9.52.98-6.43 4.8-8.69l-3.22-3.88s4.64-7.28 4.82-7.12 8.66 6.45 8.76 6.45 1.48-1.17 1.48-1.17l1.29 2.18 14.59-9.33-1.07-3.81s12.76-8.23 12.92-8.07 9.98 2.9 10.08 2.9 12.72-15.95 12.72-15.95l8.35 4.07-1.92 5.92 7.3 1.77 14.53-4.66.63-2.14.55-6.09 3.36-4.5 7.43-1.97 1.51-4.92s5.63 1.22 5.8 1.17c.15-.92.22-1.84.21-2.77l-.63-2.61 5.72-5-6.51-7.06s-8.45-2.26-8.99-2.98-2.44-2.56-2.1-4.49 1.17-4.49 3.83-4.83 14.03-2.61 14.03-2.61l.72-11.84 9.87-1.85-.67-6.39 2.65-7.78c-.07.03-5.11-4.26-5.11-4.43zm-136.57-1.18c-.25.87-.41 1.76-.46 2.67 0-.29.01-.57.04-.84a5.2 5.2 0 01.42-1.83z" class="st40"/>
      <path id="Path_134" d="M591.74 245.43c-.54.76-2.08 3.15-2.53 1.86s-.82-3.15-2.3-3.94-5.57-3.56-9.92-3.72-7.69-.82-9.08-.35-1.92 1.55-3.66.82-4.47-3.22-5.57-2.62-2.62 3-2.77 1.58.85-2.4-.29-3.44-3.28-1.64-2.9-3.15.82-4.95-1.14-6.39-8.28-8.1-8.28-8.1 3.97-6.24 3.34-8.26c-.56-1.95-.93-3.94-1.11-5.95-.06-1.07-.28-5.1-2.24-5.1s-4.03.53-4.38 1.61-.63 1.45-2.05 1.04-3.68-.38-4.41-2.05-1.04-2.47-.95-2.62 3.72-2.62 3.49-4.22.54-2.14-1.16-2.27-4.98-.19-5.73.95a4.584 4.584 0 01-2.9 2.11c-.91.07-3.97 1.58-5.13.12s-4.29-5.51-5.17-7.56-1.04-3.66-2.11-4.04c-1.07-.38-5.23-1.33-5.23-1.33s-.14-4.5 0-4.41c0-.03-7.62-7.72-9.33-8.16-1.73-.44-4.51-1.49-4.66-2.84a6.849 6.849 0 00-1.07-3.22c-.75-1.32-1.38-5.63-2.55-7.03s-6.74-4.75-5.83-7.78 2.26-5.77 1.77-7.37c-.5-1.57-3.07-6.84-3.19-7.1-1.16.64-3.71 1.3-7.18 2.56-4.35 1.57-9.52 6.23-9.52 6.23s-6.68.16-6.87.16-10.08 11.12-10.08 11.12-5.08-3.31-7.5-3.05-2.42 2.74-2.17 4.44-1.58 1.8-2.62 2.65-8.41.75-9.33.88-1.29 1.17-2.71 3.18-5.7 5.48-5.7 5.48-7.97-.44-8.07-.44c-.99.8-1.94 1.67-2.83 2.58-1.16 1.16.31 8.38.31 8.38s-5.55.16-6.37.41-9.54-.67-11.25-1.14-6.08 2.71-6.08 2.71l-7.97-4.95c-.47.27-.9.6-1.29.98-.57.57-1.89.44-2.71 1.01s.07 2.14 0 3.65-6.77-1.04-6.77-1.04v-6.08l-10.43 8.28 5.22 11.72-14.11 6.3 1.51 8.77 5.55 13.61-7.06 9.83 3.73 6.37-5.23 19.48 3.02 6.74h10.08l14.43 8.57 15.69-8.25 8.95 6.8 3.72 11.48 12.04 2.9-4.1 8 7.5 11.79 8.63-2.55 13.61 9.23-2.77 4.47 5.23 3.41-1.45 10.77-10.06-3.35-3.03 2.33 5.24 17.71 4.54-2.02 3.15 6.87-5.86 5.62-.82 9.83 4.04-2.15 4.28 6.93 10.34 4.22.31 3.84 11.66 1.77 14.37-4.29 5.92 6.06h10.84l8.56 9.89s.2-8.38 3.41-9.14 5.35-1.51 6.49-.5c1.13 1.01 8.19 4.22 11.34 4.67 0 0-1.13-5.55-.62-7.37s-.13-4.79-.44-6.37a9.71 9.71 0 010-5.55 26.26 26.26 0 001.95-7.94c.13-2.96 1.44-4.6-1.77-5.61s-3.91-5.17-2.27-6.11 3.91-.62 3.53-2.9-1.05-2.98-1.17-4.62-1.14-3.95-1.01-5.68.46-3.11-.58-2.68-6.6 2.68-8.53 1.77c-1.93-.92-8.28-5.21-8.07-6.26s1.43-3.36 2.73-2.7 5 3.32 6.85 2.61 4.62-1.77 5.38-2.99 3.15-5.83 4.41-6.67.17-.51-1.01-1.98-3.83-3.19-2.02-4.04c1.31-.68 2.51-1.54 3.57-2.56l-5.3-5.63.17-14.28 10.79-6.51 20.46-.17 7.98-8.07 7.1 1.81s.79-7.19 2.35-8.19 2.57-1.27 3.78-.72 7.94 4.83 9.58 2.02 1.01-5.3 2.78-6.93 7.14-5.25 7.72-7.56 1.72-9.47 1.72-9.47c-.97-.83-2.36-2.06-2.79-1.45z" class="st40"/>
      <path id="Path_135" d="M533.63 413.13s-.39 7.31-1.15 9.04a46.906 46.906 0 01-4.03 7.19c-1.06 1.26-4.49 4.37-5.08 7.27s-1.98 8.32-3.95 9.7-10.79 5.17-10.92 6.64-.51 3.6-2.27 4.79-3.36 3.66-5.41 4.2-2.02 1.39-3.2 2.65c-1.14 1.22-2.8 2.94-2.9 3.04h-.01c-.31-.25-.66-.44-1.04-.57-1.6-.58-3.7-1.51-3.7-1.51l-21.81 7.68-6.72 12.31-14.79-.51s-8.06-20.77-15.45-29.18l-29.98 3.88c-.35-1.53-.62-3.07-.79-4.63 0-1.07-1.44-3.27-2.64-4.22s-3.15-4.48-3.66-5.93-4.03-4.03-6.3-6.61-1.64-3.66-1.95-6.17 1.26-3.03 3.02-4.73-3.35-5.42-3.35-5.42l7.12-2.96 7.13-4.98v-13.49l10.89 2.09.45-6.62-5.36-5.73 3.9-10.21 8.7-1.45 2.9-6.3 7.44 1.51 4.16-6.92 4.04-2.14 4.28 6.93 10.34 4.22.31 3.84 11.66 1.77 14.37-4.29 5.92 6.05h10.84l8.56 9.89s.2-8.38 3.41-9.14 5.35-1.51 6.49-.5c1.13 1.01 8.19 4.22 11.34 4.67 0 0 5.38 17.43 7.19 21.59.5 1.18 1.17 2.29 2 3.26z" class="st40"/>
      <path id="Path_136" d="M308.68 326l-5.16-.18-7.63 16.7 5.92 22-5.61 6.36-3.33-3.84-4.35 2.4s1.77 8.32 1.64 8.51-5.36 2.64-5.36 2.64l3.08 9.08-2.56 9.37a6.151 6.151 0 004.88 1.89c3.49 0 4.74-.84 5.67.17s1.01 3.49 3.4 2.09 1.77-2.09 4.04-1.84 3.07.33 3.07.33-.24 3.07 1.22 3.78 6.38 2.9 6.6 2.95h.01c.12 0 12.01-.25 12.01-.25s2.4-4 3.99-3.7 2.35 1.17 4.15 1.47 6.64 1 7.85 1.64c1.63.83 3.43 1.28 5.25 1.3 1.98-.04 6.1-1.17 8.28.38s2.78 2.44 3.78 2.44 1.6-.05 2.31.92 2.94 6.55 5.5 6.6 8.36-1.72 8.65-.42 2.23 4.96 3.49 4.63 6.09-1.35 6.09-1.35l7.11-2.96 7.13-4.98v-13.49l10.89 2.09.45-6.62-5.36-5.73 3.9-10.21 8.7-1.45 2.9-6.3 7.44 1.51 4.16-6.92.82-9.83 5.86-5.62-3.15-6.86-4.54 2.02-5.23-17.71 3.03-2.33 10.07 3.34 1.45-10.77-5.23-3.41 2.77-4.47-13.61-9.23-8.63 2.55-7.5-11.79 4.1-8-12.04-2.9-3.72-11.48-8.95-6.8-15.69 8.25-14.43-8.57H348.2l-16.31 5.08 4.28 14.64-13.05 2.26 1.52 9.77-9.14 8.57 3.77 9.83-4.73 12.67-1.78-.06" class="st40"/>
      <path id="Path_137" d="M324.63 295.13l-9.14 8.57 3.77 9.83-4.72 12.67s-5.87-.57-5.87-.2l-5.16-.18-7.63 16.7 5.92 22-5.61 6.36-3.33-3.84-4.35 2.4s1.77 8.32 1.64 8.51-5.36 2.64-5.36 2.64l3.08 9.08-2.56 9.36c-.21-.08-3.78.55-6.55.93s-9.87 6.26-9.87 6.26l-8.78-1.81-.84-2.9 1.63-2.57-3.48-2.47-4.62 1.6h-.01l-3.04-3.99-3.09-1.77 2.08-3.28.44-3.53-2.14-8.07-9.45-.88-5.23-10.47 5.86-3.72-1.39-8.38-17.64-4.6-5.55 3.53-1.38 5.67-4.79-.38-4.27 3.8-7.06-1.07-4.79 2.97-7.5-8.01-7.25-1.77-1.58-8.56-8.76-3.98-9.39 2.02-3.59-8.57-8.51-3.91-.82 1.89-2.2.44-4.72-2.77-.44-8.64-.89-.44-5.04 1.95-5.99-5.16 3.53-5.11-4.54-2.96-3.34 2.14-2.68-3.21 2.17-29.81-4.28-4.92 3.66-5.42-8.01-14.56s1.26-9.46 1.33-9.65 9.07-4.04 9.07-4.04l-1.51-8.07 4.04-12.98-4.04-7.63 1.93-4.54 7.3 1.77 14.53-4.66.63-2.14.55-6.09 3.36-4.5 7.43-1.97 1.51-4.92s5.63 1.22 5.8 1.17c.15-.92.22-1.84.21-2.77l-.63-2.61 5.72-5-6.51-7.06s-8.45-2.26-8.99-2.98-2.44-2.56-2.1-4.49 1.17-4.49 3.83-4.83 14.03-2.61 14.03-2.61l.72-11.84 9.87-1.85 6.11 12.52 4.13 3.28 1.95.19 3.02-2.11 11.56-.76 4.82 3.47-6.14 10.25 8.77 6.1.42 14.36-1.85 19.96 5.89 3.32 7.39 6.55 1.72 12.56-5.21 2.36 2.4 9.16 5.08.96 7.14-2.48 4.96 6.51 5.68-3.39 11.05 3.39 2.06 4.17 17.98 7.94 4.96-6.55 7.81 6.3 3.53-3.15 10.72 2.74 1.98 4.92s6.34 8.61 9.45 7.05 9.53-5.45 9.53-5.45l5.72 4.03 4.28 14.64-13.05 2.26 1.51 9.78z" class="st40"/>
    </g>
  </g>
  <path id="Path_455" d="M543.44 262.97c-.5-3.4-3.66-5.74-7.05-5.25-3.4.5-5.74 3.66-5.25 7.05.5 3.4 3.66 5.74 7.05 5.25 2.4-.35 4.37-2.06 5.06-4.38h241.53v-2.67H543.44z" class="st5"/>
  <path id="Path_456" d="M424.66 472.19c-.5-3.4-3.66-5.74-7.05-5.25-3.4.5-5.74 3.66-5.25 7.05.5 3.4 3.66 5.74 7.05 5.25 2.4-.35 4.37-2.06 5.06-4.38h360.32v-2.67H424.66z" class="st5"/>
  <path id="Path_457" d="M498.64 532.27c.5 3.39 3.66 5.74 7.05 5.24s5.74-3.66 5.24-7.05-3.66-5.74-7.05-5.24a6.2 6.2 0 00-5.05 4.38H73.16v2.67h425.48z" class="st5"/>
  <g id="Group_947" transform="translate(0 311.594)">
    <path id="Path_279" d="M524.88 96.12a6.237 6.237 0 00-5.96 4.45H104.89L9.41 5.09h-3.9l96.34 96.34 1.81 1.81h415.07c.49 3.4 3.65 5.76 7.05 5.27s5.76-3.65 5.27-7.05c-.45-3.08-3.08-5.35-6.17-5.34z" class="st5"/>
  </g>
  <g id="Group_946" transform="translate(432.596 38.236)">
    <path id="Path_280" d="M277.6 5.09h-2.55l-1.3 1.3L15.46 264.67a6.222 6.222 0 00-8.7 1.27 6.222 6.222 0 001.27 8.7 6.222 6.222 0 008.7-1.27 6.224 6.224 0 00.48-6.68L276.06 7.85h76.13V5.09H277.6z" class="st5"/>
  </g>
  <g id="Group_944" transform="translate(40.05 54.897)">
    <path id="Path_281" d="M5.51 45.08v2.67h271.57l2.67-2.67H5.51z" class="st5"/>
    <path id="Path_282" d="M312.31 16.29a6.214 6.214 0 008.7-1.28c2.05-2.75 1.48-6.65-1.28-8.7s-6.65-1.48-8.7 1.28a6.224 6.224 0 00-.48 6.68l-30.81 30.81h3.77l28.8-28.79z" class="st5"/>
    <path id="Path_283" d="M279.75 45.08l-2.67 2.67h3.77l2.67-2.67h-3.77z" class="st5"/>
  </g>
</svg>
